<?xml version="1.0" encoding="UTF-8" standalone="no"?>
<!-- Created with Inkscape (http://www.inkscape.org/) -->

<svg
   width="256"
   height="256"
   viewBox="0 0 67.733332 67.733333"
   version="1.1"
   id="svg10613"
   inkscape:version="1.2.2 (732a01da63, 2022-12-09)"
   sodipodi:docname="4_1.svg"
   xmlns:inkscape="http://www.inkscape.org/namespaces/inkscape"
   xmlns:sodipodi="http://sodipodi.sourceforge.net/DTD/sodipodi-0.dtd"
   xmlns="http://www.w3.org/2000/svg"
   xmlns:svg="http://www.w3.org/2000/svg"
   xmlns:ns11="http://www.iki.fi/pav/software/textext/">
  <sodipodi:namedview
     id="namedview10615"
     pagecolor="#ffffff"
     bordercolor="#000000"
     borderopacity="0.25"
     inkscape:showpageshadow="2"
     inkscape:pageopacity="0.0"
     inkscape:pagecheckerboard="0"
     inkscape:deskcolor="#d1d1d1"
     inkscape:document-units="mm"
     showgrid="true"
     inkscape:zoom="2.0888419"
     inkscape:cx="-31.596455"
     inkscape:cy="165.64202"
     inkscape:window-width="1920"
     inkscape:window-height="1009"
     inkscape:window-x="-8"
     inkscape:window-y="-8"
     inkscape:window-maximized="1"
     inkscape:current-layer="layer1">
    <inkscape:grid
       type="xygrid"
       id="grid11097"
       empspacing="5"
       originx="33.866666"
       originy="33.866667" />
  </sodipodi:namedview>
  <defs
     id="defs10610">
    <marker
       style="overflow:visible"
       id="marker4027"
       refX="0"
       refY="0"
       orient="auto"
       inkscape:stockid="Dot"
       markerWidth="5.6666665"
       markerHeight="5.6666665"
       viewBox="0 0 5.6666667 5.6666667"
       inkscape:isstock="true"
       inkscape:collect="always"
       preserveAspectRatio="xMidYMid">
      <path
         transform="scale(0.5)"
         style="fill:context-stroke;fill-rule:evenodd;stroke:context-stroke;stroke-width:1pt"
         d="M 5,0 C 5,2.76 2.76,5 0,5 -2.76,5 -5,2.76 -5,0 c 0,-2.76 2.3,-5 5,-5 2.76,0 5,2.24 5,5 z"
         id="path4025"
         sodipodi:nodetypes="sssss" />
    </marker>
    <marker
       style="overflow:visible"
       id="Dot"
       refX="0"
       refY="0"
       orient="auto"
       inkscape:stockid="Dot"
       markerWidth="5.6666665"
       markerHeight="5.6666665"
       viewBox="0 0 5.6666667 5.6666667"
       inkscape:isstock="true"
       inkscape:collect="always"
       preserveAspectRatio="xMidYMid">
      <path
         transform="scale(0.5)"
         style="fill:context-stroke;fill-rule:evenodd;stroke:context-stroke;stroke-width:1pt"
         d="M 5,0 C 5,2.76 2.76,5 0,5 -2.76,5 -5,2.76 -5,0 c 0,-2.76 2.3,-5 5,-5 2.76,0 5,2.24 5,5 z"
         id="Dot1"
         sodipodi:nodetypes="sssss" />
    </marker>
    <rect
       x="32.999997"
       y="138"
       width="40"
       height="30"
       id="rect32654" />
    <marker
       style="overflow:visible"
       id="marker21006"
       refX="0"
       refY="0"
       orient="auto-start-reverse"
       inkscape:stockid="Arrow1L"
       markerWidth="8.75"
       markerHeight="5"
       viewBox="0 0 8.75 5"
       inkscape:isstock="true"
       inkscape:collect="always"
       preserveAspectRatio="xMidYMid">
      <path
         style="fill:context-stroke;fill-rule:evenodd;stroke:none"
         d="M 0,0 5,-5 -12.5,0 5,5 Z"
         id="path21004"
         transform="scale(-0.5)" />
    </marker>
    <marker
       style="overflow:visible"
       id="marker20906"
       refX="0"
       refY="0"
       orient="auto-start-reverse"
       inkscape:stockid="Arrow1L"
       markerWidth="8.75"
       markerHeight="5"
       viewBox="0 0 8.75 5"
       inkscape:isstock="true"
       inkscape:collect="always"
       preserveAspectRatio="xMidYMid">
      <path
         style="fill:context-stroke;fill-rule:evenodd;stroke:none"
         d="M 0,0 5,-5 -12.5,0 5,5 Z"
         id="path20904"
         transform="scale(-0.5)" />
    </marker>
    <marker
       style="overflow:visible"
       id="Arrow1L"
       refX="0"
       refY="0"
       orient="auto-start-reverse"
       inkscape:stockid="Arrow1L"
       markerWidth="8.75"
       markerHeight="5"
       viewBox="0 0 8.75 5"
       inkscape:isstock="true"
       inkscape:collect="always"
       preserveAspectRatio="xMidYMid">
      <path
         style="fill:context-stroke;fill-rule:evenodd;stroke:none"
         d="M 0,0 5,-5 -12.5,0 5,5 Z"
         id="arrow1L"
         transform="scale(-0.5)" />
    </marker>
  </defs>
  <g
     inkscape:label="Layer 1"
     inkscape:groupmode="layer"
     id="layer1">
    <path
       style="fill:none;stroke:#000000;stroke-width:0.264999;stroke-dasharray:none;stroke-dashoffset:0"
       d="m 17.991666,57.679166 v -15.875"
       id="path15287" />
    <path
       style="fill:none;stroke:#000000;stroke-width:0.264999;stroke-dasharray:none;stroke-dashoffset:0"
       d="m 10.054166,49.741666 h 15.875"
       id="path15289" />
    <path
       style="fill:none;stroke:#000000;stroke-width:0.264999;stroke-dasharray:none;stroke-dashoffset:0"
       d="m 25.929166,49.741666 c 0,0 0,0 0,0 z"
       id="path15291" />
    <path
       style="fill:none;stroke:#000000;stroke-width:0.264999;stroke-dasharray:none;stroke-dashoffset:0;marker-end:url(#Arrow1L)"
       d="m 25.929166,49.741666 h 7.9375"
       id="path15293" />
    <path
       style="fill:none;stroke:#000000;stroke-width:0.264999;stroke-dasharray:none;stroke-dashoffset:0"
       d="m 10.054166,49.741666 h -7.9375"
       id="path15295" />
    <path
       style="fill:none;stroke:#000000;stroke-width:0.264999;stroke-dasharray:none;stroke-dashoffset:0;marker-end:url(#marker20906)"
       d="m 17.991666,41.804166 v -7.9375"
       id="path15297" />
    <path
       style="fill:none;stroke:#000000;stroke-width:0.264999;stroke-dasharray:none;stroke-dashoffset:0"
       d="m 17.991666,57.679166 v 7.9375"
       id="path15299" />
    <path
       style="fill:none;stroke:#000000;stroke-width:0.264999;stroke-dasharray:none;stroke-dashoffset:0;marker-start:url(#marker21006)"
       d="m 2.116666,65.616666 15.875,-15.875"
       id="path15303" />
    <path
       style="fill:none;stroke:#000000;stroke-width:0.264999;stroke-dasharray:0.264999,0.264999;stroke-dashoffset:0"
       d="m 17.991666,49.741666 15.875,-15.875 31.749999,-31.749999"
       id="path15305" />
    <path
       style="fill:none;stroke:#000000;stroke-width:0.264999;stroke-dasharray:none;stroke-dashoffset:0"
       d="M 65.616666,2.116667 V 28.575 l 0,1.322917"
       id="path15372" />
    <path
       style="fill:none;stroke:#000000;stroke-width:0.264999;stroke-dasharray:none;stroke-dashoffset:0"
       d="M 37.835416,2.116667 17.991666,49.741666"
       id="path16828" />
    <path
       style="fill:none;stroke:#000000;stroke-width:0.264999;stroke-dasharray:none;stroke-dashoffset:0"
       d="m 65.616666,29.897916 -47.625,19.84375"
       id="path16830" />
    <path
       style="fill:none;stroke:#000000;stroke-width:0.264999;stroke-dasharray:none;stroke-dashoffset:0"
       d="m 65.616666,2.116667 -47.625,47.624999"
       id="path16832" />
    <text
       xml:space="preserve"
       transform="scale(0.26458333)"
       id="text32652"
       style="font-style:italic;font-variant:normal;font-weight:normal;font-stretch:normal;font-family:'Times New Roman';-inkscape-font-specification:'Times New Roman,  Italic';white-space:pre;shape-inside:url(#rect32654);display:inline;fill:none;stroke:#000000;stroke-width:1.00157;stroke-dasharray:none;stroke-dashoffset:0" />
    <path
       style="fill:none;stroke:#000000;stroke-width:0.264999"
       d="M 30.669616,19.314583 Z"
       id="path706" />
    <g
       transform="matrix(0.352778,0,0,0.352778,48.832116,37.70877)"
       ns11:version="1.8.2"
       ns11:texconverter="pdflatex"
       ns11:pdfconverter="inkscape"
       ns11:text="$\\boldsymbol{(r,b,z_{n})}$"
       ns11:preamble="C:\Users\Yune\AppData\Roaming\inkscape\extensions\textext\default_packages.tex"
       ns11:scale="1.0"
       ns11:alignment="middle center"
       ns11:stroke-to-path="0"
       ns11:inkscapeversion="1.2.2"
       ns11:jacobian_sqrt="0.352778"
       id="g586">
      <defs
         id="id-84138e2f-3ba9-4337-97d8-9075c7c2bb98">
        <g
           id="id-28261ae7-4094-41fe-b42d-3b599d11e18a">
          <g
             id="id-2bee4adb-9735-4233-b0f4-eb1df8976b32" />
          <g
             id="id-9b1cb237-72a4-40e1-82f9-afb3b01c1655">
            <path
               d="M 3.78125,2.25 C 3.484375,1.96875 2.84375,1.359375 2.421875,0.09375 2.15625,-0.703125 2.046875,-1.609375 2.046875,-2.5 c 0,-1.953125 0.5,-3.515625 1.609375,-4.625 0.140625,-0.15625 0.15625,-0.15625 0.15625,-0.21875 0,-0.109375 -0.109375,-0.140625 -0.1875,-0.140625 -0.171875,0 -0.578125,0.375 -0.765625,0.546875 -1.546875,1.546875 -1.78125,3.375 -1.78125,4.4375 0,1.25 0.328125,2.34375 0.796875,3.171875 0.65625,1.140625 1.5625,1.8125 1.75,1.8125 0.078125,0 0.1875,-0.03125 0.1875,-0.140625 C 3.8125,2.296875 3.78125,2.25 3.78125,2.25 Z m 0,0"
               id="id-dd6d7d51-e7c0-46c1-860f-07e425090060" />
          </g>
          <g
             id="id-d078847c-6e02-498a-aac9-6849ed7b2b56">
            <path
               d="M 3.375,-2.5 C 3.375,-3.734375 3.046875,-4.828125 2.578125,-5.65625 1.90625,-6.8125 1,-7.484375 0.8125,-7.484375 c -0.078125,0 -0.171875,0.03125 -0.171875,0.140625 0,0.0625 0,0.078125 0.171875,0.234375 1.25,1.28125 1.59375,3.046875 1.59375,4.609375 0,1.96875 -0.515625,3.53125 -1.609375,4.640625 -0.15625,0.140625 -0.15625,0.15625 -0.15625,0.203125 0,0.109375 0.09375,0.140625 0.171875,0.140625 0.171875,0 0.59375,-0.375 0.765625,-0.546875 C 3.140625,0.40625 3.375,-1.4375 3.375,-2.5 Z m 0,0"
               id="id-b7beb71d-29a3-48dc-a182-c92853b215e0" />
          </g>
          <g
             id="id-85e59ce8-e81c-405e-8e5c-91d397c123b8" />
          <g
             id="id-901c8cfa-4aab-4a6c-84be-3bcf9bfb6e16">
            <path
               d="M 4.421875,-4 C 3.875,-3.890625 3.8125,-3.40625 3.8125,-3.3125 c 0,0.21875 0.171875,0.46875 0.5,0.46875 0.34375,0 0.71875,-0.28125 0.71875,-0.796875 C 5.03125,-4.09375 4.671875,-4.5 4.0625,-4.5 3.5,-4.5 3.03125,-4.234375 2.734375,-3.90625 2.5,-4.359375 1.921875,-4.5 1.5625,-4.5 c -0.359375,0 -0.640625,0.203125 -0.859375,0.5625 -0.25,0.390625 -0.390625,0.921875 -0.390625,0.984375 0,0.140625 0.15625,0.140625 0.25,0.140625 0.109375,0 0.140625,0 0.1875,-0.046875 C 0.78125,-2.875 0.78125,-2.90625 0.84375,-3.15625 c 0.1875,-0.75 0.40625,-0.984375 0.671875,-0.984375 0.15625,0 0.234375,0.09375 0.234375,0.359375 0,0.171875 -0.03125,0.28125 -0.140625,0.75 -0.046875,0.171875 -0.21875,0.828125 -0.28125,1.078125 -0.046875,0.1875 -0.15625,0.640625 -0.203125,0.8125 -0.0625,0.265625 -0.171875,0.71875 -0.171875,0.78125 0,0.203125 0.15625,0.4375 0.46875,0.4375 0.1875,0 0.546875,-0.125 0.65625,-0.53125 0,-0.03125 0.6875,-2.734375 0.6875,-2.796875 C 2.8125,-3.40625 2.8125,-3.421875 2.9375,-3.5625 c 0.234375,-0.296875 0.59375,-0.578125 1.09375,-0.578125 0.25,0 0.359375,0.109375 0.390625,0.140625 z m 0,0"
               id="id-ccb5e3c3-287c-4d25-ba48-aa99d5fc8f69" />
          </g>
          <g
             id="id-ff8521cc-4e3d-4308-b292-b799a43e5c6d">
            <path
               d="M 2.140625,-0.203125 C 2.109375,0.421875 1.796875,1.09375 1.25,1.5625 1.109375,1.671875 1.109375,1.6875 1.109375,1.75 c 0,0.0625 0.109375,0.1875 0.1875,0.1875 C 1.4375,1.9375 2.5,1.0625 2.5,-0.3125 2.5,-1 2.140625,-1.5625 1.578125,-1.5625 1.109375,-1.5625 0.8125,-1.203125 0.8125,-0.78125 0.8125,-0.375 1.09375,0 1.578125,0 c 0.25,0 0.4375,-0.09375 0.5625,-0.203125 z m 0,0"
               id="id-c21bdd43-b491-451d-aec0-2cb0d3333352" />
          </g>
          <g
             id="id-2a0beea6-688f-4b16-95d6-530386afe92f">
            <path
               d="M 2.796875,-6.5625 C 2.84375,-6.703125 2.84375,-6.734375 2.84375,-6.734375 c 0,-0.140625 -0.109375,-0.1875 -0.21875,-0.1875 -0.046875,0 -0.046875,0 -0.078125,0.015625 l -1.28125,0.0625 c -0.140625,0 -0.3125,0.015625 -0.3125,0.296875 0,0.171875 0.1875,0.171875 0.25,0.171875 0.109375,0 0.296875,0 0.421875,0.03125 -0.078125,0.328125 -0.171875,0.765625 -0.28125,1.140625 l -0.6875,2.75 c -0.140625,0.5625 -0.140625,0.671875 -0.140625,0.90625 0,1.28125 0.953125,1.625 1.703125,1.625 1.796875,0 2.828125,-1.625 2.828125,-2.9375 C 5.046875,-4.09375 4.125,-4.5 3.296875,-4.5 c -0.46875,0 -0.875,0.1875 -1.078125,0.3125 z m -0.5625,6.28125 c -0.390625,0 -0.71875,-0.203125 -0.71875,-0.828125 0,-0.3125 0.09375,-0.6875 0.171875,-1 0.09375,-0.375 0.265625,-1.0625 0.34375,-1.359375 0.046875,-0.171875 0.609375,-0.671875 1.21875,-0.671875 0.625,0 0.671875,0.53125 0.671875,0.75 0,0.515625 -0.34375,1.75 -0.5,2.140625 -0.34375,0.796875 -0.90625,0.96875 -1.1875,0.96875 z m 0,0"
               id="id-94dfb87b-d8a7-48d0-a69f-72700ce138a5" />
          </g>
          <g
             id="id-1113f455-e654-43d6-a321-6bf2103c64a9">
            <path
               d="m 2.40625,-3.40625 c 0.140625,0 0.265625,0 0.40625,0 0.390625,-0.015625 0.890625,-0.046875 1.28125,-0.0625 -0.28125,0.265625 -0.4375,0.421875 -1.4375,1.1875 -2.015625,1.53125 -2.234375,2.1875 -2.234375,2.21875 0,0.140625 0.140625,0.140625 0.21875,0.140625 0.171875,0 0.171875,-0.015625 0.25,-0.109375 0.359375,-0.5 0.71875,-0.5625 0.890625,-0.5625 0.265625,0 0.484375,0.171875 0.640625,0.28125 0.3125,0.21875 0.5625,0.390625 0.9375,0.390625 1.109375,0 1.84375,-1.21875 1.84375,-1.59375 0,-0.140625 -0.171875,-0.140625 -0.234375,-0.140625 -0.078125,0 -0.1875,0 -0.21875,0.09375 -0.078125,0.1875 -0.1875,0.4375 -0.859375,0.515625 -0.046875,0.015625 -2,0.09375 -2.21875,0.09375 0.28125,-0.265625 0.4375,-0.421875 1.453125,-1.1875 2.015625,-1.53125 2.234375,-2.1875 2.234375,-2.21875 C 5.359375,-4.5 5.21875,-4.5 5.140625,-4.5 c -0.15625,0 -0.171875,0 -0.234375,0.09375 -0.234375,0.34375 -0.4375,0.578125 -0.671875,0.578125 -0.25,0 -0.46875,-0.15625 -0.703125,-0.3125 C 3.296875,-4.328125 3.046875,-4.5 2.671875,-4.5 c -0.875,0 -1.453125,0.875 -1.453125,1.1875 0,0.140625 0.171875,0.140625 0.25,0.140625 0.09375,0 0.203125,0 0.21875,-0.125 C 1.828125,-3.375 1.90625,-3.375 2.203125,-3.40625 Z m 0,0"
               id="id-ed3e7c11-cde7-49e7-8dac-bbb14edf8ec8" />
          </g>
          <g
             id="id-17568713-1ef5-4e06-938d-6c3cc9c2f1ef" />
          <g
             id="id-2f875c54-c0e6-4556-a4f5-7b120e21c264">
            <path
               d="m 1.03125,-0.90625 c -0.046875,0.203125 -0.125,0.5625 -0.125,0.609375 0,0.25 0.1875,0.359375 0.359375,0.359375 C 1.65625,0.0625 1.75,-0.296875 1.8125,-0.5 1.90625,-0.90625 1.90625,-0.921875 2,-1.3125 2.109375,-1.71875 2.109375,-1.734375 2.125,-1.796875 2.171875,-2 2.46875,-2.34375 2.65625,-2.515625 c 0.125,-0.109375 0.421875,-0.3125 0.796875,-0.3125 0.328125,0 0.390625,0.1875 0.390625,0.40625 0,0.390625 -0.3125,1.171875 -0.421875,1.453125 C 3.328125,-0.75 3.3125,-0.6875 3.3125,-0.578125 c 0,0.40625 0.453125,0.640625 0.890625,0.640625 0.796875,0 1.21875,-0.890625 1.21875,-1.09375 0,-0.125 -0.125,-0.125 -0.21875,-0.125 -0.171875,0 -0.1875,0.015625 -0.234375,0.15625 -0.125,0.390625 -0.421875,0.734375 -0.71875,0.734375 -0.046875,0 -0.125,0 -0.125,-0.171875 0,-0.125 0.046875,-0.203125 0.171875,-0.53125 0.0625,-0.140625 0.390625,-0.953125 0.390625,-1.328125 0,-0.859375 -0.96875,-0.859375 -1.171875,-0.859375 -0.171875,0 -0.703125,0 -1.265625,0.5625 -0.15625,-0.5625 -0.90625,-0.5625 -0.96875,-0.5625 -0.734375,0 -0.96875,1.03125 -0.96875,1.09375 0,0.125 0.109375,0.125 0.21875,0.125 0.171875,0 0.1875,0 0.21875,-0.15625 0.09375,-0.296875 0.21875,-0.734375 0.484375,-0.734375 0.171875,0 0.1875,0.171875 0.1875,0.28125 0,0.09375 -0.015625,0.171875 -0.0625,0.390625 C 1.28125,-1.890625 1.28125,-1.875 1.21875,-1.609375 Z m 0,0"
               id="id-330c551f-bc38-4466-8612-63bb1b8b8a26" />
          </g>
        </g>
      </defs>
      <g
         fill="#000000"
         fill-opacity="1"
         id="id-a84e3934-712f-47f0-ba2c-480dfca4d567"
         transform="translate(-149.79,-127.281)">
        <g
           transform="translate(148.712,134.765)"
           id="g2285">
          <path
             d="M 3.78125,2.25 C 3.484375,1.96875 2.84375,1.359375 2.421875,0.09375 2.15625,-0.703125 2.046875,-1.609375 2.046875,-2.5 c 0,-1.953125 0.5,-3.515625 1.609375,-4.625 0.140625,-0.15625 0.15625,-0.15625 0.15625,-0.21875 0,-0.109375 -0.109375,-0.140625 -0.1875,-0.140625 -0.171875,0 -0.578125,0.375 -0.765625,0.546875 -1.546875,1.546875 -1.78125,3.375 -1.78125,4.4375 0,1.25 0.328125,2.34375 0.796875,3.171875 0.65625,1.140625 1.5625,1.8125 1.75,1.8125 0.078125,0 0.1875,-0.03125 0.1875,-0.140625 C 3.8125,2.296875 3.78125,2.25 3.78125,2.25 Z m 0,0"
             id="id-e1cce2e7-d479-4429-8a99-0b1bc89f7bdb" />
        </g>
      </g>
      <g
         fill="#000000"
         fill-opacity="1"
         id="id-71098eb8-e925-410c-b0d2-a5483378a2b9"
         transform="translate(-149.79,-127.281)">
        <g
           transform="translate(153.168,134.765)"
           id="g2289">
          <path
             d="M 4.421875,-4 C 3.875,-3.890625 3.8125,-3.40625 3.8125,-3.3125 c 0,0.21875 0.171875,0.46875 0.5,0.46875 0.34375,0 0.71875,-0.28125 0.71875,-0.796875 C 5.03125,-4.09375 4.671875,-4.5 4.0625,-4.5 3.5,-4.5 3.03125,-4.234375 2.734375,-3.90625 2.5,-4.359375 1.921875,-4.5 1.5625,-4.5 c -0.359375,0 -0.640625,0.203125 -0.859375,0.5625 -0.25,0.390625 -0.390625,0.921875 -0.390625,0.984375 0,0.140625 0.15625,0.140625 0.25,0.140625 0.109375,0 0.140625,0 0.1875,-0.046875 C 0.78125,-2.875 0.78125,-2.90625 0.84375,-3.15625 c 0.1875,-0.75 0.40625,-0.984375 0.671875,-0.984375 0.15625,0 0.234375,0.09375 0.234375,0.359375 0,0.171875 -0.03125,0.28125 -0.140625,0.75 -0.046875,0.171875 -0.21875,0.828125 -0.28125,1.078125 -0.046875,0.1875 -0.15625,0.640625 -0.203125,0.8125 -0.0625,0.265625 -0.171875,0.71875 -0.171875,0.78125 0,0.203125 0.15625,0.4375 0.46875,0.4375 0.1875,0 0.546875,-0.125 0.65625,-0.53125 0,-0.03125 0.6875,-2.734375 0.6875,-2.796875 C 2.8125,-3.40625 2.8125,-3.421875 2.9375,-3.5625 c 0.234375,-0.296875 0.59375,-0.578125 1.09375,-0.578125 0.25,0 0.359375,0.109375 0.390625,0.140625 z m 0,0"
             id="id-48328910-b322-46b1-806e-c62cba5f4f38" />
        </g>
      </g>
      <g
         fill="#000000"
         fill-opacity="1"
         id="id-0549a94e-b4c0-48b0-8555-ef62cbf10385"
         transform="translate(-149.79,-127.281)">
        <g
           transform="translate(158.116,134.765)"
           id="g2293">
          <path
             d="M 2.140625,-0.203125 C 2.109375,0.421875 1.796875,1.09375 1.25,1.5625 1.109375,1.671875 1.109375,1.6875 1.109375,1.75 c 0,0.0625 0.109375,0.1875 0.1875,0.1875 C 1.4375,1.9375 2.5,1.0625 2.5,-0.3125 2.5,-1 2.140625,-1.5625 1.578125,-1.5625 1.109375,-1.5625 0.8125,-1.203125 0.8125,-0.78125 0.8125,-0.375 1.09375,0 1.578125,0 c 0.25,0 0.4375,-0.09375 0.5625,-0.203125 z m 0,0"
             id="id-3733ab14-22c9-4f3e-b5c5-c25bab1ff6d0" />
        </g>
      </g>
      <g
         fill="#000000"
         fill-opacity="1"
         id="id-efd2e784-fdd0-4a03-9f0b-45013bb378ca"
         transform="translate(-149.79,-127.281)">
        <g
           transform="translate(163.211,134.765)"
           id="g2297">
          <path
             d="M 2.796875,-6.5625 C 2.84375,-6.703125 2.84375,-6.734375 2.84375,-6.734375 c 0,-0.140625 -0.109375,-0.1875 -0.21875,-0.1875 -0.046875,0 -0.046875,0 -0.078125,0.015625 l -1.28125,0.0625 c -0.140625,0 -0.3125,0.015625 -0.3125,0.296875 0,0.171875 0.1875,0.171875 0.25,0.171875 0.109375,0 0.296875,0 0.421875,0.03125 -0.078125,0.328125 -0.171875,0.765625 -0.28125,1.140625 l -0.6875,2.75 c -0.140625,0.5625 -0.140625,0.671875 -0.140625,0.90625 0,1.28125 0.953125,1.625 1.703125,1.625 1.796875,0 2.828125,-1.625 2.828125,-2.9375 C 5.046875,-4.09375 4.125,-4.5 3.296875,-4.5 c -0.46875,0 -0.875,0.1875 -1.078125,0.3125 z m -0.5625,6.28125 c -0.390625,0 -0.71875,-0.203125 -0.71875,-0.828125 0,-0.3125 0.09375,-0.6875 0.171875,-1 0.09375,-0.375 0.265625,-1.0625 0.34375,-1.359375 0.046875,-0.171875 0.609375,-0.671875 1.21875,-0.671875 0.625,0 0.671875,0.53125 0.671875,0.75 0,0.515625 -0.34375,1.75 -0.5,2.140625 -0.34375,0.796875 -0.90625,0.96875 -1.1875,0.96875 z m 0,0"
             id="id-3b23bf47-6ea6-4179-ad46-cbaa14ef52b4" />
        </g>
        <g
           transform="translate(168.4,134.765)"
           id="g2300">
          <path
             d="M 2.140625,-0.203125 C 2.109375,0.421875 1.796875,1.09375 1.25,1.5625 1.109375,1.671875 1.109375,1.6875 1.109375,1.75 c 0,0.0625 0.109375,0.1875 0.1875,0.1875 C 1.4375,1.9375 2.5,1.0625 2.5,-0.3125 2.5,-1 2.140625,-1.5625 1.578125,-1.5625 1.109375,-1.5625 0.8125,-1.203125 0.8125,-0.78125 0.8125,-0.375 1.09375,0 1.578125,0 c 0.25,0 0.4375,-0.09375 0.5625,-0.203125 z m 0,0"
             id="id-9c545818-e38f-4094-a2f1-053a2a565166" />
        </g>
      </g>
      <g
         fill="#000000"
         fill-opacity="1"
         id="id-2efbaed5-aa56-47e0-943a-11ec3b66e5a0"
         transform="translate(-149.79,-127.281)">
        <g
           transform="translate(173.485,134.765)"
           id="g2304">
          <path
             d="m 2.40625,-3.40625 c 0.140625,0 0.265625,0 0.40625,0 0.390625,-0.015625 0.890625,-0.046875 1.28125,-0.0625 -0.28125,0.265625 -0.4375,0.421875 -1.4375,1.1875 -2.015625,1.53125 -2.234375,2.1875 -2.234375,2.21875 0,0.140625 0.140625,0.140625 0.21875,0.140625 0.171875,0 0.171875,-0.015625 0.25,-0.109375 0.359375,-0.5 0.71875,-0.5625 0.890625,-0.5625 0.265625,0 0.484375,0.171875 0.640625,0.28125 0.3125,0.21875 0.5625,0.390625 0.9375,0.390625 1.109375,0 1.84375,-1.21875 1.84375,-1.59375 0,-0.140625 -0.171875,-0.140625 -0.234375,-0.140625 -0.078125,0 -0.1875,0 -0.21875,0.09375 -0.078125,0.1875 -0.1875,0.4375 -0.859375,0.515625 -0.046875,0.015625 -2,0.09375 -2.21875,0.09375 0.28125,-0.265625 0.4375,-0.421875 1.453125,-1.1875 2.015625,-1.53125 2.234375,-2.1875 2.234375,-2.21875 C 5.359375,-4.5 5.21875,-4.5 5.140625,-4.5 c -0.15625,0 -0.171875,0 -0.234375,0.09375 -0.234375,0.34375 -0.4375,0.578125 -0.671875,0.578125 -0.25,0 -0.46875,-0.15625 -0.703125,-0.3125 C 3.296875,-4.328125 3.046875,-4.5 2.671875,-4.5 c -0.875,0 -1.453125,0.875 -1.453125,1.1875 0,0.140625 0.171875,0.140625 0.25,0.140625 0.09375,0 0.203125,0 0.21875,-0.125 C 1.828125,-3.375 1.90625,-3.375 2.203125,-3.40625 Z m 0,0"
             id="id-096047af-3899-44f0-89ec-771912caef02" />
        </g>
      </g>
      <g
         fill="#000000"
         fill-opacity="1"
         id="id-c6a86edd-fdc8-4ffb-8926-a5776c3d22b9"
         transform="translate(-149.79,-127.281)">
        <g
           transform="translate(179.02,136.259)"
           id="g2308">
          <path
             d="m 1.03125,-0.90625 c -0.046875,0.203125 -0.125,0.5625 -0.125,0.609375 0,0.25 0.1875,0.359375 0.359375,0.359375 C 1.65625,0.0625 1.75,-0.296875 1.8125,-0.5 1.90625,-0.90625 1.90625,-0.921875 2,-1.3125 2.109375,-1.71875 2.109375,-1.734375 2.125,-1.796875 2.171875,-2 2.46875,-2.34375 2.65625,-2.515625 c 0.125,-0.109375 0.421875,-0.3125 0.796875,-0.3125 0.328125,0 0.390625,0.1875 0.390625,0.40625 0,0.390625 -0.3125,1.171875 -0.421875,1.453125 C 3.328125,-0.75 3.3125,-0.6875 3.3125,-0.578125 c 0,0.40625 0.453125,0.640625 0.890625,0.640625 0.796875,0 1.21875,-0.890625 1.21875,-1.09375 0,-0.125 -0.125,-0.125 -0.21875,-0.125 -0.171875,0 -0.1875,0.015625 -0.234375,0.15625 -0.125,0.390625 -0.421875,0.734375 -0.71875,0.734375 -0.046875,0 -0.125,0 -0.125,-0.171875 0,-0.125 0.046875,-0.203125 0.171875,-0.53125 0.0625,-0.140625 0.390625,-0.953125 0.390625,-1.328125 0,-0.859375 -0.96875,-0.859375 -1.171875,-0.859375 -0.171875,0 -0.703125,0 -1.265625,0.5625 -0.15625,-0.5625 -0.90625,-0.5625 -0.96875,-0.5625 -0.734375,0 -0.96875,1.03125 -0.96875,1.09375 0,0.125 0.109375,0.125 0.21875,0.125 0.171875,0 0.1875,0 0.21875,-0.15625 0.09375,-0.296875 0.21875,-0.734375 0.484375,-0.734375 0.171875,0 0.1875,0.171875 0.1875,0.28125 0,0.09375 -0.015625,0.171875 -0.0625,0.390625 C 1.28125,-1.890625 1.28125,-1.875 1.21875,-1.609375 Z m 0,0"
             id="id-c7f2b03a-9c43-42d4-b8e6-4b0fc13bb8ff" />
        </g>
      </g>
      <g
         fill="#000000"
         fill-opacity="1"
         id="id-82e4287f-5401-4624-90a2-34a44bb9fc61"
         transform="translate(-149.79,-127.281)">
        <g
           transform="translate(185.257,134.765)"
           id="g2312">
          <path
             d="M 3.375,-2.5 C 3.375,-3.734375 3.046875,-4.828125 2.578125,-5.65625 1.90625,-6.8125 1,-7.484375 0.8125,-7.484375 c -0.078125,0 -0.171875,0.03125 -0.171875,0.140625 0,0.0625 0,0.078125 0.171875,0.234375 1.25,1.28125 1.59375,3.046875 1.59375,4.609375 0,1.96875 -0.515625,3.53125 -1.609375,4.640625 -0.15625,0.140625 -0.15625,0.15625 -0.15625,0.203125 0,0.109375 0.09375,0.140625 0.171875,0.140625 0.171875,0 0.59375,-0.375 0.765625,-0.546875 C 3.140625,0.40625 3.375,-1.4375 3.375,-2.5 Z m 0,0"
             id="id-b45bc1b6-cf15-4b80-8425-fb881be734fd" />
        </g>
      </g>
    </g>
    <g
       transform="matrix(0.352778,0,0,0.352778,16.618076,16.938977)"
       ns11:version="1.8.2"
       ns11:texconverter="pdflatex"
       ns11:pdfconverter="inkscape"
       ns11:text="$\\boldsymbol{(l,t,z_{n})}$"
       ns11:preamble="C:\Users\Yune\AppData\Roaming\inkscape\extensions\textext\default_packages.tex"
       ns11:scale="1.0"
       ns11:alignment="middle center"
       ns11:stroke-to-path="0"
       ns11:inkscapeversion="1.2.2"
       ns11:jacobian_sqrt="0.352778"
       id="g2630">
      <defs
         id="id-53897be9-7e02-4d2c-be51-f3310f224d5a">
        <g
           id="id-ef00ec47-6a93-4ed2-b34a-d7d3b42652f1">
          <g
             id="id-34ddd531-28de-4dfc-a501-e3e641b2587a" />
          <g
             id="id-2c77931f-c1fa-45b5-9e91-cc75b5395f08">
            <path
               d="M 3.78125,2.25 C 3.484375,1.96875 2.84375,1.359375 2.421875,0.09375 2.15625,-0.703125 2.046875,-1.609375 2.046875,-2.5 c 0,-1.953125 0.5,-3.515625 1.609375,-4.625 0.140625,-0.15625 0.15625,-0.15625 0.15625,-0.21875 0,-0.109375 -0.109375,-0.140625 -0.1875,-0.140625 -0.171875,0 -0.578125,0.375 -0.765625,0.546875 -1.546875,1.546875 -1.78125,3.375 -1.78125,4.4375 0,1.25 0.328125,2.34375 0.796875,3.171875 0.65625,1.140625 1.5625,1.8125 1.75,1.8125 0.078125,0 0.1875,-0.03125 0.1875,-0.140625 C 3.8125,2.296875 3.78125,2.25 3.78125,2.25 Z m 0,0"
               id="id-aaf16b1d-9945-4e77-b0e6-0d9ec24b13df" />
          </g>
          <g
             id="id-02d38da9-5565-44af-bbe7-f8ab233176be">
            <path
               d="M 3.375,-2.5 C 3.375,-3.734375 3.046875,-4.828125 2.578125,-5.65625 1.90625,-6.8125 1,-7.484375 0.8125,-7.484375 c -0.078125,0 -0.171875,0.03125 -0.171875,0.140625 0,0.0625 0,0.078125 0.171875,0.234375 1.25,1.28125 1.59375,3.046875 1.59375,4.609375 0,1.96875 -0.515625,3.53125 -1.609375,4.640625 -0.15625,0.140625 -0.15625,0.15625 -0.15625,0.203125 0,0.109375 0.09375,0.140625 0.171875,0.140625 0.171875,0 0.59375,-0.375 0.765625,-0.546875 C 3.140625,0.40625 3.375,-1.4375 3.375,-2.5 Z m 0,0"
               id="id-6d4c8545-913f-4793-86e9-a80437ba5524" />
          </g>
          <g
             id="id-9887676d-9fa0-4bd7-8223-f34bf58f4a57" />
          <g
             id="id-9f17cb6e-9876-430d-984d-dde4e9f76d01">
            <path
               d="M 2.828125,-6.5625 C 2.875,-6.703125 2.875,-6.734375 2.875,-6.734375 c 0,-0.140625 -0.109375,-0.1875 -0.21875,-0.1875 -0.046875,0 -0.046875,0 -0.078125,0.015625 l -1.28125,0.0625 c -0.140625,0 -0.3125,0.015625 -0.3125,0.296875 0,0.171875 0.1875,0.171875 0.25,0.171875 0.109375,0 0.296875,0 0.421875,0.03125 L 0.375,-1.234375 C 0.34375,-1.125 0.328125,-1.03125 0.328125,-0.890625 c 0,0.65625 0.65625,0.96875 1.25,0.96875 0.359375,0 0.640625,-0.203125 0.859375,-0.5625 0.25,-0.390625 0.390625,-0.9375 0.390625,-0.984375 0,-0.140625 -0.15625,-0.140625 -0.25,-0.140625 -0.109375,0 -0.140625,0 -0.203125,0.046875 -0.015625,0.015625 -0.015625,0.03125 -0.078125,0.28125 -0.1875,0.765625 -0.40625,1 -0.671875,1 -0.15625,0 -0.234375,-0.09375 -0.234375,-0.359375 0,-0.203125 0.03125,-0.296875 0.0625,-0.4375 z m 0,0"
               id="id-a1e093e1-cbbd-40d2-8e0c-a3bce8ffc853" />
          </g>
          <g
             id="id-b560cfa6-51fa-4174-9976-de3ef39016c1">
            <path
               d="M 2.140625,-0.203125 C 2.109375,0.421875 1.796875,1.09375 1.25,1.5625 1.109375,1.671875 1.109375,1.6875 1.109375,1.75 c 0,0.0625 0.109375,0.1875 0.1875,0.1875 C 1.4375,1.9375 2.5,1.0625 2.5,-0.3125 2.5,-1 2.140625,-1.5625 1.578125,-1.5625 1.109375,-1.5625 0.8125,-1.203125 0.8125,-0.78125 0.8125,-0.375 1.09375,0 1.578125,0 c 0.25,0 0.4375,-0.09375 0.5625,-0.203125 z m 0,0"
               id="id-762b208c-4e9f-4f8e-9ecb-ef1dbbf1bda3" />
          </g>
          <g
             id="id-20367832-e5d7-4081-8d8b-7da679e00b0a">
            <path
               d="M 2.515625,-3.953125 H 3.40625 c 0.1875,0 0.21875,0 0.265625,-0.046875 0.0625,-0.046875 0.09375,-0.1875 0.09375,-0.25 0,-0.171875 -0.171875,-0.171875 -0.34375,-0.171875 H 2.625 L 2.953125,-5.71875 c 0.03125,-0.15625 0.03125,-0.21875 0.03125,-0.25 0,-0.328125 -0.25,-0.4375 -0.46875,-0.4375 -0.140625,0 -0.40625,0.0625 -0.578125,0.34375 C 1.90625,-5.984375 1.78125,-5.515625 1.71875,-5.25 L 1.515625,-4.421875 H 0.625 c -0.203125,0 -0.375,0 -0.375,0.28125 0,0.1875 0.15625,0.1875 0.34375,0.1875 H 1.390625 L 0.828125,-1.6875 C 0.75,-1.421875 0.65625,-1 0.65625,-0.890625 c 0,0.640625 0.640625,0.96875 1.25,0.96875 1.1875,0 1.875,-1.390625 1.875,-1.546875 0,-0.140625 -0.15625,-0.140625 -0.25,-0.140625 -0.15625,0 -0.171875,0 -0.234375,0.15625 -0.390625,0.859375 -0.9375,1.171875 -1.328125,1.171875 -0.09375,0 -0.25,0 -0.25,-0.359375 0,-0.203125 0.03125,-0.3125 0.0625,-0.4375 z m 0,0"
               id="id-32d3df9d-3121-4a07-b727-fa6ad6800789" />
          </g>
          <g
             id="id-44793009-3f08-4bdc-848b-c49865d19a0c">
            <path
               d="m 2.40625,-3.40625 c 0.140625,0 0.265625,0 0.40625,0 0.390625,-0.015625 0.890625,-0.046875 1.28125,-0.0625 -0.28125,0.265625 -0.4375,0.421875 -1.4375,1.1875 -2.015625,1.53125 -2.234375,2.1875 -2.234375,2.21875 0,0.140625 0.140625,0.140625 0.21875,0.140625 0.171875,0 0.171875,-0.015625 0.25,-0.109375 0.359375,-0.5 0.71875,-0.5625 0.890625,-0.5625 0.265625,0 0.484375,0.171875 0.640625,0.28125 0.3125,0.21875 0.5625,0.390625 0.9375,0.390625 1.109375,0 1.84375,-1.21875 1.84375,-1.59375 0,-0.140625 -0.171875,-0.140625 -0.234375,-0.140625 -0.078125,0 -0.1875,0 -0.21875,0.09375 -0.078125,0.1875 -0.1875,0.4375 -0.859375,0.515625 -0.046875,0.015625 -2,0.09375 -2.21875,0.09375 0.28125,-0.265625 0.4375,-0.421875 1.453125,-1.1875 2.015625,-1.53125 2.234375,-2.1875 2.234375,-2.21875 C 5.359375,-4.5 5.21875,-4.5 5.140625,-4.5 c -0.15625,0 -0.171875,0 -0.234375,0.09375 -0.234375,0.34375 -0.4375,0.578125 -0.671875,0.578125 -0.25,0 -0.46875,-0.15625 -0.703125,-0.3125 C 3.296875,-4.328125 3.046875,-4.5 2.671875,-4.5 c -0.875,0 -1.453125,0.875 -1.453125,1.1875 0,0.140625 0.171875,0.140625 0.25,0.140625 0.09375,0 0.203125,0 0.21875,-0.125 C 1.828125,-3.375 1.90625,-3.375 2.203125,-3.40625 Z m 0,0"
               id="id-c5786e03-af74-451b-85d2-a0665ab6d6ab" />
          </g>
          <g
             id="id-ad2e8a7f-932c-401e-8ae2-7ac9beee6f93" />
          <g
             id="id-bc117805-fefe-45a9-834a-e1a51c5d1fbf">
            <path
               d="m 1.03125,-0.90625 c -0.046875,0.203125 -0.125,0.5625 -0.125,0.609375 0,0.25 0.1875,0.359375 0.359375,0.359375 C 1.65625,0.0625 1.75,-0.296875 1.8125,-0.5 1.90625,-0.90625 1.90625,-0.921875 2,-1.3125 2.109375,-1.71875 2.109375,-1.734375 2.125,-1.796875 2.171875,-2 2.46875,-2.34375 2.65625,-2.515625 c 0.125,-0.109375 0.421875,-0.3125 0.796875,-0.3125 0.328125,0 0.390625,0.1875 0.390625,0.40625 0,0.390625 -0.3125,1.171875 -0.421875,1.453125 C 3.328125,-0.75 3.3125,-0.6875 3.3125,-0.578125 c 0,0.40625 0.453125,0.640625 0.890625,0.640625 0.796875,0 1.21875,-0.890625 1.21875,-1.09375 0,-0.125 -0.125,-0.125 -0.21875,-0.125 -0.171875,0 -0.1875,0.015625 -0.234375,0.15625 -0.125,0.390625 -0.421875,0.734375 -0.71875,0.734375 -0.046875,0 -0.125,0 -0.125,-0.171875 0,-0.125 0.046875,-0.203125 0.171875,-0.53125 0.0625,-0.140625 0.390625,-0.953125 0.390625,-1.328125 0,-0.859375 -0.96875,-0.859375 -1.171875,-0.859375 -0.171875,0 -0.703125,0 -1.265625,0.5625 -0.15625,-0.5625 -0.90625,-0.5625 -0.96875,-0.5625 -0.734375,0 -0.96875,1.03125 -0.96875,1.09375 0,0.125 0.109375,0.125 0.21875,0.125 0.171875,0 0.1875,0 0.21875,-0.15625 0.09375,-0.296875 0.21875,-0.734375 0.484375,-0.734375 0.171875,0 0.1875,0.171875 0.1875,0.28125 0,0.09375 -0.015625,0.171875 -0.0625,0.390625 C 1.28125,-1.890625 1.28125,-1.875 1.21875,-1.609375 Z m 0,0"
               id="id-9afc323d-eb2c-4c8c-ae87-f8b85d61e54e" />
          </g>
        </g>
      </defs>
      <g
         fill="#000000"
         fill-opacity="1"
         id="id-1653a030-7dd3-440a-8f0c-ad6a0d0076ba"
         transform="translate(-149.79,-127.281)">
        <g
           transform="translate(148.712,134.765)"
           id="g2600">
          <path
             d="M 3.78125,2.25 C 3.484375,1.96875 2.84375,1.359375 2.421875,0.09375 2.15625,-0.703125 2.046875,-1.609375 2.046875,-2.5 c 0,-1.953125 0.5,-3.515625 1.609375,-4.625 0.140625,-0.15625 0.15625,-0.15625 0.15625,-0.21875 0,-0.109375 -0.109375,-0.140625 -0.1875,-0.140625 -0.171875,0 -0.578125,0.375 -0.765625,0.546875 -1.546875,1.546875 -1.78125,3.375 -1.78125,4.4375 0,1.25 0.328125,2.34375 0.796875,3.171875 0.65625,1.140625 1.5625,1.8125 1.75,1.8125 0.078125,0 0.1875,-0.03125 0.1875,-0.140625 C 3.8125,2.296875 3.78125,2.25 3.78125,2.25 Z m 0,0"
             id="id-5f0ee491-c2d6-46a9-b427-0157df48178e" />
        </g>
      </g>
      <g
         fill="#000000"
         fill-opacity="1"
         id="id-c9272d49-6b1b-4f2c-b799-cbb858cf91c6"
         transform="translate(-149.79,-127.281)">
        <g
           transform="translate(153.168,134.765)"
           id="g2604">
          <path
             d="M 2.828125,-6.5625 C 2.875,-6.703125 2.875,-6.734375 2.875,-6.734375 c 0,-0.140625 -0.109375,-0.1875 -0.21875,-0.1875 -0.046875,0 -0.046875,0 -0.078125,0.015625 l -1.28125,0.0625 c -0.140625,0 -0.3125,0.015625 -0.3125,0.296875 0,0.171875 0.1875,0.171875 0.25,0.171875 0.109375,0 0.296875,0 0.421875,0.03125 L 0.375,-1.234375 C 0.34375,-1.125 0.328125,-1.03125 0.328125,-0.890625 c 0,0.65625 0.65625,0.96875 1.25,0.96875 0.359375,0 0.640625,-0.203125 0.859375,-0.5625 0.25,-0.390625 0.390625,-0.9375 0.390625,-0.984375 0,-0.140625 -0.15625,-0.140625 -0.25,-0.140625 -0.109375,0 -0.140625,0 -0.203125,0.046875 -0.015625,0.015625 -0.015625,0.03125 -0.078125,0.28125 -0.1875,0.765625 -0.40625,1 -0.671875,1 -0.15625,0 -0.234375,-0.09375 -0.234375,-0.359375 0,-0.203125 0.03125,-0.296875 0.0625,-0.4375 z m 0,0"
             id="id-b7d358ca-d8e8-4ebb-a0e0-5f10b835588f" />
        </g>
      </g>
      <g
         fill="#000000"
         fill-opacity="1"
         id="id-046a8fdb-4090-4474-ad4d-86aeb411eaae"
         transform="translate(-149.79,-127.281)">
        <g
           transform="translate(156.726,134.765)"
           id="g2608">
          <path
             d="M 2.140625,-0.203125 C 2.109375,0.421875 1.796875,1.09375 1.25,1.5625 1.109375,1.671875 1.109375,1.6875 1.109375,1.75 c 0,0.0625 0.109375,0.1875 0.1875,0.1875 C 1.4375,1.9375 2.5,1.0625 2.5,-0.3125 2.5,-1 2.140625,-1.5625 1.578125,-1.5625 1.109375,-1.5625 0.8125,-1.203125 0.8125,-0.78125 0.8125,-0.375 1.09375,0 1.578125,0 c 0.25,0 0.4375,-0.09375 0.5625,-0.203125 z m 0,0"
             id="id-c9eaceb0-4c71-4b28-8d7f-b79f68a8716d" />
        </g>
      </g>
      <g
         fill="#000000"
         fill-opacity="1"
         id="id-4063d7ef-c7bc-4a55-8201-02105cc34854"
         transform="translate(-149.79,-127.281)">
        <g
           transform="translate(161.821,134.765)"
           id="g2612">
          <path
             d="M 2.515625,-3.953125 H 3.40625 c 0.1875,0 0.21875,0 0.265625,-0.046875 0.0625,-0.046875 0.09375,-0.1875 0.09375,-0.25 0,-0.171875 -0.171875,-0.171875 -0.34375,-0.171875 H 2.625 L 2.953125,-5.71875 c 0.03125,-0.15625 0.03125,-0.21875 0.03125,-0.25 0,-0.328125 -0.25,-0.4375 -0.46875,-0.4375 -0.140625,0 -0.40625,0.0625 -0.578125,0.34375 C 1.90625,-5.984375 1.78125,-5.515625 1.71875,-5.25 L 1.515625,-4.421875 H 0.625 c -0.203125,0 -0.375,0 -0.375,0.28125 0,0.1875 0.15625,0.1875 0.34375,0.1875 H 1.390625 L 0.828125,-1.6875 C 0.75,-1.421875 0.65625,-1 0.65625,-0.890625 c 0,0.640625 0.640625,0.96875 1.25,0.96875 1.1875,0 1.875,-1.390625 1.875,-1.546875 0,-0.140625 -0.15625,-0.140625 -0.25,-0.140625 -0.15625,0 -0.171875,0 -0.234375,0.15625 -0.390625,0.859375 -0.9375,1.171875 -1.328125,1.171875 -0.09375,0 -0.25,0 -0.25,-0.359375 0,-0.203125 0.03125,-0.3125 0.0625,-0.4375 z m 0,0"
             id="id-e873b698-ccc1-4466-a5e0-41adc510e98e" />
        </g>
        <g
           transform="translate(165.958,134.765)"
           id="g2615">
          <path
             d="M 2.140625,-0.203125 C 2.109375,0.421875 1.796875,1.09375 1.25,1.5625 1.109375,1.671875 1.109375,1.6875 1.109375,1.75 c 0,0.0625 0.109375,0.1875 0.1875,0.1875 C 1.4375,1.9375 2.5,1.0625 2.5,-0.3125 2.5,-1 2.140625,-1.5625 1.578125,-1.5625 1.109375,-1.5625 0.8125,-1.203125 0.8125,-0.78125 0.8125,-0.375 1.09375,0 1.578125,0 c 0.25,0 0.4375,-0.09375 0.5625,-0.203125 z m 0,0"
             id="id-850344f9-76ab-4b86-b6eb-b45e2d4fe9ff" />
        </g>
      </g>
      <g
         fill="#000000"
         fill-opacity="1"
         id="id-549f1754-1edb-42d2-b4a1-5677f8a8bd27"
         transform="translate(-149.79,-127.281)">
        <g
           transform="translate(171.043,134.765)"
           id="g2619">
          <path
             d="m 2.40625,-3.40625 c 0.140625,0 0.265625,0 0.40625,0 0.390625,-0.015625 0.890625,-0.046875 1.28125,-0.0625 -0.28125,0.265625 -0.4375,0.421875 -1.4375,1.1875 -2.015625,1.53125 -2.234375,2.1875 -2.234375,2.21875 0,0.140625 0.140625,0.140625 0.21875,0.140625 0.171875,0 0.171875,-0.015625 0.25,-0.109375 0.359375,-0.5 0.71875,-0.5625 0.890625,-0.5625 0.265625,0 0.484375,0.171875 0.640625,0.28125 0.3125,0.21875 0.5625,0.390625 0.9375,0.390625 1.109375,0 1.84375,-1.21875 1.84375,-1.59375 0,-0.140625 -0.171875,-0.140625 -0.234375,-0.140625 -0.078125,0 -0.1875,0 -0.21875,0.09375 -0.078125,0.1875 -0.1875,0.4375 -0.859375,0.515625 -0.046875,0.015625 -2,0.09375 -2.21875,0.09375 0.28125,-0.265625 0.4375,-0.421875 1.453125,-1.1875 2.015625,-1.53125 2.234375,-2.1875 2.234375,-2.21875 C 5.359375,-4.5 5.21875,-4.5 5.140625,-4.5 c -0.15625,0 -0.171875,0 -0.234375,0.09375 -0.234375,0.34375 -0.4375,0.578125 -0.671875,0.578125 -0.25,0 -0.46875,-0.15625 -0.703125,-0.3125 C 3.296875,-4.328125 3.046875,-4.5 2.671875,-4.5 c -0.875,0 -1.453125,0.875 -1.453125,1.1875 0,0.140625 0.171875,0.140625 0.25,0.140625 0.09375,0 0.203125,0 0.21875,-0.125 C 1.828125,-3.375 1.90625,-3.375 2.203125,-3.40625 Z m 0,0"
             id="id-a335cf3a-3dbe-4f78-98d0-d1affdab880b" />
        </g>
      </g>
      <g
         fill="#000000"
         fill-opacity="1"
         id="id-07d6d0c1-63ba-4f77-8b2f-dd5bd5c81e2e"
         transform="translate(-149.79,-127.281)">
        <g
           transform="translate(176.575,136.259)"
           id="g2623">
          <path
             d="m 1.03125,-0.90625 c -0.046875,0.203125 -0.125,0.5625 -0.125,0.609375 0,0.25 0.1875,0.359375 0.359375,0.359375 C 1.65625,0.0625 1.75,-0.296875 1.8125,-0.5 1.90625,-0.90625 1.90625,-0.921875 2,-1.3125 2.109375,-1.71875 2.109375,-1.734375 2.125,-1.796875 2.171875,-2 2.46875,-2.34375 2.65625,-2.515625 c 0.125,-0.109375 0.421875,-0.3125 0.796875,-0.3125 0.328125,0 0.390625,0.1875 0.390625,0.40625 0,0.390625 -0.3125,1.171875 -0.421875,1.453125 C 3.328125,-0.75 3.3125,-0.6875 3.3125,-0.578125 c 0,0.40625 0.453125,0.640625 0.890625,0.640625 0.796875,0 1.21875,-0.890625 1.21875,-1.09375 0,-0.125 -0.125,-0.125 -0.21875,-0.125 -0.171875,0 -0.1875,0.015625 -0.234375,0.15625 -0.125,0.390625 -0.421875,0.734375 -0.71875,0.734375 -0.046875,0 -0.125,0 -0.125,-0.171875 0,-0.125 0.046875,-0.203125 0.171875,-0.53125 0.0625,-0.140625 0.390625,-0.953125 0.390625,-1.328125 0,-0.859375 -0.96875,-0.859375 -1.171875,-0.859375 -0.171875,0 -0.703125,0 -1.265625,0.5625 -0.15625,-0.5625 -0.90625,-0.5625 -0.96875,-0.5625 -0.734375,0 -0.96875,1.03125 -0.96875,1.09375 0,0.125 0.109375,0.125 0.21875,0.125 0.171875,0 0.1875,0 0.21875,-0.15625 0.09375,-0.296875 0.21875,-0.734375 0.484375,-0.734375 0.171875,0 0.1875,0.171875 0.1875,0.28125 0,0.09375 -0.015625,0.171875 -0.0625,0.390625 C 1.28125,-1.890625 1.28125,-1.875 1.21875,-1.609375 Z m 0,0"
             id="id-33930457-0f06-4a4c-b6de-90c52868f37f" />
        </g>
      </g>
      <g
         fill="#000000"
         fill-opacity="1"
         id="id-537c63e3-0044-48d8-9b61-0bb7e320dd11"
         transform="translate(-149.79,-127.281)">
        <g
           transform="translate(182.812,134.765)"
           id="g2627">
          <path
             d="M 3.375,-2.5 C 3.375,-3.734375 3.046875,-4.828125 2.578125,-5.65625 1.90625,-6.8125 1,-7.484375 0.8125,-7.484375 c -0.078125,0 -0.171875,0.03125 -0.171875,0.140625 0,0.0625 0,0.078125 0.171875,0.234375 1.25,1.28125 1.59375,3.046875 1.59375,4.609375 0,1.96875 -0.515625,3.53125 -1.609375,4.640625 -0.15625,0.140625 -0.15625,0.15625 -0.15625,0.203125 0,0.109375 0.09375,0.140625 0.171875,0.140625 0.171875,0 0.59375,-0.375 0.765625,-0.546875 C 3.140625,0.40625 3.375,-1.4375 3.375,-2.5 Z m 0,0"
             id="id-93eebd18-0d28-4f1c-a9c0-dbb0bf690f57" />
        </g>
      </g>
    </g>
    <path
       style="fill:none;stroke:#000000;stroke-width:0.264999;stroke-dasharray:0.264999, 0.264999;stroke-dashoffset:0"
       d="M 48.418749,37.063714 Z"
       id="path3579" />
    <path
       style="fill:none;stroke:#000000;stroke-width:0.264999;stroke-dasharray:none;stroke-dashoffset:0"
       d="M 48.418749,37.063714 Z"
       id="path3581" />
    <path
       style="fill:none;stroke:#000000;stroke-width:0.264999;stroke-dasharray:none;stroke-dashoffset:0;marker-end:url(#Dot)"
       d="M 49.741666,17.991667 V 36.5125"
       id="path3941" />
    <path
       style="fill:none;stroke:#000000;stroke-width:0.264999;stroke-dasharray:none;stroke-dashoffset:0;marker-end:url(#marker4027)"
       d="M 49.741666,17.991667 H 31.220833"
       id="path4023" />
    <path
       style="fill:none;stroke:#000000;stroke-width:0.264999;stroke-dasharray:0.264999,0.264999;stroke-dashoffset:0"
       d="M 49.741666,36.5125 H 31.220833 V 17.991667"
       id="path4125" />
    <g
       transform="matrix(0.352778,0,0,0.352778,4.070856,64.161281)"
       ns11:version="1.8.2"
       ns11:texconverter="pdflatex"
       ns11:pdfconverter="inkscape"
       ns11:text="$\\boldsymbol{+z}$"
       ns11:preamble="C:\Users\Yune\AppData\Roaming\inkscape\extensions\textext\default_packages.tex"
       ns11:scale="1.0"
       ns11:alignment="middle center"
       ns11:stroke-to-path="0"
       ns11:inkscapeversion="1.2.2"
       ns11:jacobian_sqrt="0.352778"
       id="g1975">
      <defs
         id="id-73d8e40f-0952-4e7f-82ea-35cfcd4ed133">
        <g
           id="id-7680943c-a305-4b6e-a9a2-81772d02ab84">
          <g
             id="id-5e731c4f-47b4-4aa1-b173-337521069917" />
          <g
             id="id-c6e0585c-bb6f-4393-942d-0b27da0e8f91">
            <path
               d="m 4.75,-2.1875 h 3.078125 c 0.140625,0 0.4375,0 0.4375,-0.3125 0,-0.296875 -0.296875,-0.296875 -0.4375,-0.296875 H 4.75 v -3.09375 c 0,-0.125 0,-0.421875 -0.296875,-0.421875 -0.3125,0 -0.3125,0.296875 -0.3125,0.421875 v 3.09375 H 1.0625 c -0.140625,0 -0.421875,0 -0.421875,0.296875 0,0.3125 0.296875,0.3125 0.421875,0.3125 h 3.078125 v 3.078125 c 0,0.125 0,0.421875 0.3125,0.421875 C 4.75,1.3125 4.75,1.03125 4.75,0.890625 Z m 0,0"
               id="id-25404370-af6f-4ad3-90db-75fed81eb9ca" />
          </g>
          <g
             id="id-18b1e554-d9d4-4e74-a7f1-c207ef735762" />
          <g
             id="id-456d5590-8dff-467f-ba3c-afa6e186d77a">
            <path
               d="m 2.40625,-3.40625 c 0.140625,0 0.265625,0 0.40625,0 0.390625,-0.015625 0.890625,-0.046875 1.28125,-0.0625 -0.28125,0.265625 -0.4375,0.421875 -1.4375,1.1875 -2.015625,1.53125 -2.234375,2.1875 -2.234375,2.21875 0,0.140625 0.140625,0.140625 0.21875,0.140625 0.171875,0 0.171875,-0.015625 0.25,-0.109375 0.359375,-0.5 0.71875,-0.5625 0.890625,-0.5625 0.265625,0 0.484375,0.171875 0.640625,0.28125 0.3125,0.21875 0.5625,0.390625 0.9375,0.390625 1.109375,0 1.84375,-1.21875 1.84375,-1.59375 0,-0.140625 -0.171875,-0.140625 -0.234375,-0.140625 -0.078125,0 -0.1875,0 -0.21875,0.09375 -0.078125,0.1875 -0.1875,0.4375 -0.859375,0.515625 -0.046875,0.015625 -2,0.09375 -2.21875,0.09375 0.28125,-0.265625 0.4375,-0.421875 1.453125,-1.1875 2.015625,-1.53125 2.234375,-2.1875 2.234375,-2.21875 C 5.359375,-4.5 5.21875,-4.5 5.140625,-4.5 c -0.15625,0 -0.171875,0 -0.234375,0.09375 -0.234375,0.34375 -0.4375,0.578125 -0.671875,0.578125 -0.25,0 -0.46875,-0.15625 -0.703125,-0.3125 C 3.296875,-4.328125 3.046875,-4.5 2.671875,-4.5 c -0.875,0 -1.453125,0.875 -1.453125,1.1875 0,0.140625 0.171875,0.140625 0.25,0.140625 0.09375,0 0.203125,0 0.21875,-0.125 C 1.828125,-3.375 1.90625,-3.375 2.203125,-3.40625 Z m 0,0"
               id="id-07f7bbd0-b420-4016-a123-7e42dff8ebdb" />
          </g>
        </g>
      </defs>
      <g
         fill="#000000"
         fill-opacity="1"
         id="id-122a6c3d-3705-4a9b-8b1e-c9f787139de6"
         transform="translate(-149.353,-128.452)">
        <g
           transform="translate(148.712,134.765)"
           id="g6151">
          <path
             d="m 4.75,-2.1875 h 3.078125 c 0.140625,0 0.4375,0 0.4375,-0.3125 0,-0.296875 -0.296875,-0.296875 -0.4375,-0.296875 H 4.75 v -3.09375 c 0,-0.125 0,-0.421875 -0.296875,-0.421875 -0.3125,0 -0.3125,0.296875 -0.3125,0.421875 v 3.09375 H 1.0625 c -0.140625,0 -0.421875,0 -0.421875,0.296875 0,0.3125 0.296875,0.3125 0.421875,0.3125 h 3.078125 v 3.078125 c 0,0.125 0,0.421875 0.3125,0.421875 C 4.75,1.3125 4.75,1.03125 4.75,0.890625 Z m 0,0"
             id="id-aa00870d-6ed2-4820-8637-7b6104213325" />
        </g>
      </g>
      <g
         fill="#000000"
         fill-opacity="1"
         id="id-f8ead147-72b7-42c7-9fc1-08a7bc1ced84"
         transform="translate(-149.353,-128.452)">
        <g
           transform="translate(157.623,134.765)"
           id="g6155">
          <path
             d="m 2.40625,-3.40625 c 0.140625,0 0.265625,0 0.40625,0 0.390625,-0.015625 0.890625,-0.046875 1.28125,-0.0625 -0.28125,0.265625 -0.4375,0.421875 -1.4375,1.1875 -2.015625,1.53125 -2.234375,2.1875 -2.234375,2.21875 0,0.140625 0.140625,0.140625 0.21875,0.140625 0.171875,0 0.171875,-0.015625 0.25,-0.109375 0.359375,-0.5 0.71875,-0.5625 0.890625,-0.5625 0.265625,0 0.484375,0.171875 0.640625,0.28125 0.3125,0.21875 0.5625,0.390625 0.9375,0.390625 1.109375,0 1.84375,-1.21875 1.84375,-1.59375 0,-0.140625 -0.171875,-0.140625 -0.234375,-0.140625 -0.078125,0 -0.1875,0 -0.21875,0.09375 -0.078125,0.1875 -0.1875,0.4375 -0.859375,0.515625 -0.046875,0.015625 -2,0.09375 -2.21875,0.09375 0.28125,-0.265625 0.4375,-0.421875 1.453125,-1.1875 2.015625,-1.53125 2.234375,-2.1875 2.234375,-2.21875 C 5.359375,-4.5 5.21875,-4.5 5.140625,-4.5 c -0.15625,0 -0.171875,0 -0.234375,0.09375 -0.234375,0.34375 -0.4375,0.578125 -0.671875,0.578125 -0.25,0 -0.46875,-0.15625 -0.703125,-0.3125 C 3.296875,-4.328125 3.046875,-4.5 2.671875,-4.5 c -0.875,0 -1.453125,0.875 -1.453125,1.1875 0,0.140625 0.171875,0.140625 0.25,0.140625 0.09375,0 0.203125,0 0.21875,-0.125 C 1.828125,-3.375 1.90625,-3.375 2.203125,-3.40625 Z m 0,0"
             id="id-5e408ac6-3942-404a-9768-ddf8ea65ee49" />
        </g>
      </g>
    </g>
    <g
       transform="matrix(0.352778,0,0,0.352778,10.79676,32.940448)"
       ns11:version="1.8.2"
       ns11:texconverter="pdflatex"
       ns11:pdfconverter="inkscape"
       ns11:text="$\\boldsymbol{+y}$"
       ns11:preamble="C:\Users\Yune\AppData\Roaming\inkscape\extensions\textext\default_packages.tex"
       ns11:scale="1.0"
       ns11:alignment="middle center"
       ns11:stroke-to-path="0"
       ns11:inkscapeversion="1.2.2"
       ns11:jacobian_sqrt="0.352778"
       id="g1752">
      <defs
         id="id-e613d572-8764-489c-bcf6-f4ff36b4f45a">
        <g
           id="id-343b0113-153e-41e3-80d3-26337470f1c7">
          <g
             id="id-2c89e373-be40-4321-ae2e-bed1d6af323f" />
          <g
             id="id-1b1c1963-3f07-4445-ad33-5ab6ba03dd42">
            <path
               d="m 4.75,-2.1875 h 3.078125 c 0.140625,0 0.4375,0 0.4375,-0.3125 0,-0.296875 -0.296875,-0.296875 -0.4375,-0.296875 H 4.75 v -3.09375 c 0,-0.125 0,-0.421875 -0.296875,-0.421875 -0.3125,0 -0.3125,0.296875 -0.3125,0.421875 v 3.09375 H 1.0625 c -0.140625,0 -0.421875,0 -0.421875,0.296875 0,0.3125 0.296875,0.3125 0.421875,0.3125 h 3.078125 v 3.078125 c 0,0.125 0,0.421875 0.3125,0.421875 C 4.75,1.3125 4.75,1.03125 4.75,0.890625 Z m 0,0"
               id="id-de079ba1-608c-4631-9095-ee01b8c229ca" />
          </g>
          <g
             id="id-7e716ffb-b921-4065-8aa7-31be311e36ac" />
          <g
             id="id-2a3dd4c4-f070-4192-84a8-cad8a480bdd8">
            <path
               d="m 5.75,-3.765625 c 0.046875,-0.171875 0.046875,-0.1875 0.046875,-0.21875 0,-0.21875 -0.15625,-0.4375 -0.46875,-0.4375 -0.515625,0 -0.640625,0.46875 -0.703125,0.734375 L 4.359375,-2.65625 C 4.25,-2.171875 4.0625,-1.40625 3.953125,-1 3.890625,-0.78125 3.59375,-0.53125 3.5625,-0.515625 3.453125,-0.453125 3.203125,-0.28125 2.875,-0.28125 c -0.578125,0 -0.59375,-0.5 -0.59375,-0.71875 0,-0.609375 0.3125,-1.390625 0.59375,-2.109375 C 2.96875,-3.375 3,-3.4375 3,-3.609375 3,-4.1875 2.421875,-4.5 1.875,-4.5 c -1.0625,0 -1.5625,1.34375 -1.5625,1.546875 0,0.140625 0.15625,0.140625 0.25,0.140625 0.109375,0 0.1875,0 0.21875,-0.125 0.328125,-1.109375 0.890625,-1.203125 1.03125,-1.203125 0.078125,0 0.171875,0 0.171875,0.203125 0,0.234375 -0.109375,0.484375 -0.171875,0.640625 -0.390625,1 -0.59375,1.578125 -0.59375,2.078125 0,1.140625 1,1.296875 1.578125,1.296875 0.25,0 0.59375,-0.03125 0.96875,-0.296875 C 3.484375,1 2.734375,1.65625 2.046875,1.65625 1.90625,1.65625 1.640625,1.640625 1.4375,1.515625 1.75,1.390625 1.90625,1.109375 1.90625,0.84375 1.90625,0.484375 1.625,0.390625 1.421875,0.390625 c -0.359375,0 -0.71875,0.3125 -0.71875,0.75 0,0.515625 0.53125,0.875 1.34375,0.875 1.140625,0 2.453125,-0.765625 2.765625,-2 z m 0,0"
               id="id-f86822c6-d736-4815-9b15-fda48a35b7ff" />
          </g>
        </g>
      </defs>
      <g
         fill="#000000"
         fill-opacity="1"
         id="id-2ed4718a-acf7-4508-a840-0bb24e1b5295"
         transform="translate(-149.353,-128.452)">
        <g
           transform="translate(148.712,134.765)"
           id="g6517">
          <path
             d="m 4.75,-2.1875 h 3.078125 c 0.140625,0 0.4375,0 0.4375,-0.3125 0,-0.296875 -0.296875,-0.296875 -0.4375,-0.296875 H 4.75 v -3.09375 c 0,-0.125 0,-0.421875 -0.296875,-0.421875 -0.3125,0 -0.3125,0.296875 -0.3125,0.421875 v 3.09375 H 1.0625 c -0.140625,0 -0.421875,0 -0.421875,0.296875 0,0.3125 0.296875,0.3125 0.421875,0.3125 h 3.078125 v 3.078125 c 0,0.125 0,0.421875 0.3125,0.421875 C 4.75,1.3125 4.75,1.03125 4.75,0.890625 Z m 0,0"
             id="id-9dffb785-eea2-4359-b2eb-9c2c83d89583" />
        </g>
      </g>
      <g
         fill="#000000"
         fill-opacity="1"
         id="id-6bbd9420-cc32-4d28-8b43-aad514a1457f"
         transform="translate(-149.353,-128.452)">
        <g
           transform="translate(157.623,134.765)"
           id="g6521">
          <path
             d="m 5.75,-3.765625 c 0.046875,-0.171875 0.046875,-0.1875 0.046875,-0.21875 0,-0.21875 -0.15625,-0.4375 -0.46875,-0.4375 -0.515625,0 -0.640625,0.46875 -0.703125,0.734375 L 4.359375,-2.65625 C 4.25,-2.171875 4.0625,-1.40625 3.953125,-1 3.890625,-0.78125 3.59375,-0.53125 3.5625,-0.515625 3.453125,-0.453125 3.203125,-0.28125 2.875,-0.28125 c -0.578125,0 -0.59375,-0.5 -0.59375,-0.71875 0,-0.609375 0.3125,-1.390625 0.59375,-2.109375 C 2.96875,-3.375 3,-3.4375 3,-3.609375 3,-4.1875 2.421875,-4.5 1.875,-4.5 c -1.0625,0 -1.5625,1.34375 -1.5625,1.546875 0,0.140625 0.15625,0.140625 0.25,0.140625 0.109375,0 0.1875,0 0.21875,-0.125 0.328125,-1.109375 0.890625,-1.203125 1.03125,-1.203125 0.078125,0 0.171875,0 0.171875,0.203125 0,0.234375 -0.109375,0.484375 -0.171875,0.640625 -0.390625,1 -0.59375,1.578125 -0.59375,2.078125 0,1.140625 1,1.296875 1.578125,1.296875 0.25,0 0.59375,-0.03125 0.96875,-0.296875 C 3.484375,1 2.734375,1.65625 2.046875,1.65625 1.90625,1.65625 1.640625,1.640625 1.4375,1.515625 1.75,1.390625 1.90625,1.109375 1.90625,0.84375 1.90625,0.484375 1.625,0.390625 1.421875,0.390625 c -0.359375,0 -0.71875,0.3125 -0.71875,0.75 0,0.515625 0.53125,0.875 1.34375,0.875 1.140625,0 2.453125,-0.765625 2.765625,-2 z m 0,0"
             id="id-1a99fcbb-0fa2-4596-9997-5f82bcbc42bf" />
        </g>
      </g>
    </g>
    <g
       transform="matrix(0.352778,0,0,0.352778,30.574364,51.32899)"
       ns11:version="1.8.2"
       ns11:texconverter="pdflatex"
       ns11:pdfconverter="inkscape"
       ns11:text="$\\boldsymbol{+x}$"
       ns11:preamble="C:\Users\Yune\AppData\Roaming\inkscape\extensions\textext\default_packages.tex"
       ns11:scale="1.0"
       ns11:alignment="middle center"
       ns11:stroke-to-path="0"
       ns11:inkscapeversion="1.2.2"
       ns11:jacobian_sqrt="0.352778"
       id="g1547">
      <defs
         id="id-e24492e9-6624-408b-ad03-ea80c99f8e9a">
        <g
           id="id-be473312-5259-4d63-a0e6-cdea8fc92b09">
          <g
             id="id-8ae2e84d-a6c4-4d4b-b2a5-c820a8461c1d" />
          <g
             id="id-308b478a-4706-4641-bcab-3f0aa203220c">
            <path
               d="m 4.75,-2.1875 h 3.078125 c 0.140625,0 0.4375,0 0.4375,-0.3125 0,-0.296875 -0.296875,-0.296875 -0.4375,-0.296875 H 4.75 v -3.09375 c 0,-0.125 0,-0.421875 -0.296875,-0.421875 -0.3125,0 -0.3125,0.296875 -0.3125,0.421875 v 3.09375 H 1.0625 c -0.140625,0 -0.421875,0 -0.421875,0.296875 0,0.3125 0.296875,0.3125 0.421875,0.3125 h 3.078125 v 3.078125 c 0,0.125 0,0.421875 0.3125,0.421875 C 4.75,1.3125 4.75,1.03125 4.75,0.890625 Z m 0,0"
               id="id-da932567-bd63-4cfc-a11a-611b8d69285f" />
          </g>
          <g
             id="id-191871b7-8f16-4b06-a822-be621b940a7a" />
          <g
             id="id-36d83f81-f6a2-440f-93e7-decac68758c9">
            <path
               d="m 5.34375,-4 c -0.359375,0.109375 -0.53125,0.4375 -0.53125,0.6875 0,0.21875 0.15625,0.46875 0.484375,0.46875 0.359375,0 0.71875,-0.296875 0.71875,-0.78125 C 6.015625,-4.15625 5.5,-4.5 4.890625,-4.5 4.3125,-4.5 3.953125,-4.078125 3.8125,-3.890625 3.5625,-4.3125 3.015625,-4.5 2.4375,-4.5 c -1.25,0 -1.921875,1.21875 -1.921875,1.546875 0,0.140625 0.140625,0.140625 0.234375,0.140625 0.125,0 0.1875,0 0.234375,-0.125 0.28125,-0.90625 1,-1.203125 1.40625,-1.203125 0.375,0 0.5625,0.171875 0.5625,0.484375 0,0.203125 -0.140625,0.75 -0.234375,1.109375 L 2.375,-1.1875 c -0.140625,0.609375 -0.5,0.90625 -0.84375,0.90625 -0.046875,0 -0.28125,0 -0.46875,-0.140625 0.359375,-0.109375 0.53125,-0.453125 0.53125,-0.6875 0,-0.21875 -0.171875,-0.46875 -0.5,-0.46875 -0.34375,0 -0.71875,0.296875 -0.71875,0.78125 0,0.53125 0.53125,0.875 1.140625,0.875 0.5625,0 0.9375,-0.421875 1.0625,-0.609375 0.25,0.421875 0.8125,0.609375 1.375,0.609375 1.265625,0 1.9375,-1.21875 1.9375,-1.546875 0,-0.140625 -0.15625,-0.140625 -0.234375,-0.140625 -0.125,0 -0.1875,0 -0.234375,0.125 -0.28125,0.90625 -1,1.203125 -1.421875,1.203125 -0.375,0 -0.546875,-0.171875 -0.546875,-0.5 0,-0.203125 0.125,-0.734375 0.21875,-1.109375 0.0625,-0.25 0.296875,-1.1875 0.34375,-1.34375 0.15625,-0.609375 0.5,-0.90625 0.84375,-0.90625 0.0625,0 0.28125,0 0.484375,0.140625 z m 0,0"
               id="id-16872bfd-5fd5-4941-bbdb-237d8e0ebcc7" />
          </g>
        </g>
      </defs>
      <g
         fill="#000000"
         fill-opacity="1"
         id="id-ac1b879e-e7e7-4d57-b018-9be3a6510dcc"
         transform="translate(-149.353,-128.452)">
        <g
           transform="translate(148.712,134.765)"
           id="g6895">
          <path
             d="m 4.75,-2.1875 h 3.078125 c 0.140625,0 0.4375,0 0.4375,-0.3125 0,-0.296875 -0.296875,-0.296875 -0.4375,-0.296875 H 4.75 v -3.09375 c 0,-0.125 0,-0.421875 -0.296875,-0.421875 -0.3125,0 -0.3125,0.296875 -0.3125,0.421875 v 3.09375 H 1.0625 c -0.140625,0 -0.421875,0 -0.421875,0.296875 0,0.3125 0.296875,0.3125 0.421875,0.3125 h 3.078125 v 3.078125 c 0,0.125 0,0.421875 0.3125,0.421875 C 4.75,1.3125 4.75,1.03125 4.75,0.890625 Z m 0,0"
             id="id-6b018679-55a1-4ed6-b155-9ea0fb9aeda6" />
        </g>
      </g>
      <g
         fill="#000000"
         fill-opacity="1"
         id="id-4bf197f4-b7d4-4cac-8c87-78c6f547407b"
         transform="translate(-149.353,-128.452)">
        <g
           transform="translate(157.623,134.765)"
           id="g6899">
          <path
             d="m 5.34375,-4 c -0.359375,0.109375 -0.53125,0.4375 -0.53125,0.6875 0,0.21875 0.15625,0.46875 0.484375,0.46875 0.359375,0 0.71875,-0.296875 0.71875,-0.78125 C 6.015625,-4.15625 5.5,-4.5 4.890625,-4.5 4.3125,-4.5 3.953125,-4.078125 3.8125,-3.890625 3.5625,-4.3125 3.015625,-4.5 2.4375,-4.5 c -1.25,0 -1.921875,1.21875 -1.921875,1.546875 0,0.140625 0.140625,0.140625 0.234375,0.140625 0.125,0 0.1875,0 0.234375,-0.125 0.28125,-0.90625 1,-1.203125 1.40625,-1.203125 0.375,0 0.5625,0.171875 0.5625,0.484375 0,0.203125 -0.140625,0.75 -0.234375,1.109375 L 2.375,-1.1875 c -0.140625,0.609375 -0.5,0.90625 -0.84375,0.90625 -0.046875,0 -0.28125,0 -0.46875,-0.140625 0.359375,-0.109375 0.53125,-0.453125 0.53125,-0.6875 0,-0.21875 -0.171875,-0.46875 -0.5,-0.46875 -0.34375,0 -0.71875,0.296875 -0.71875,0.78125 0,0.53125 0.53125,0.875 1.140625,0.875 0.5625,0 0.9375,-0.421875 1.0625,-0.609375 0.25,0.421875 0.8125,0.609375 1.375,0.609375 1.265625,0 1.9375,-1.21875 1.9375,-1.546875 0,-0.140625 -0.15625,-0.140625 -0.234375,-0.140625 -0.125,0 -0.1875,0 -0.234375,0.125 -0.28125,0.90625 -1,1.203125 -1.421875,1.203125 -0.375,0 -0.546875,-0.171875 -0.546875,-0.5 0,-0.203125 0.125,-0.734375 0.21875,-1.109375 0.0625,-0.25 0.296875,-1.1875 0.34375,-1.34375 0.15625,-0.609375 0.5,-0.90625 0.84375,-0.90625 0.0625,0 0.28125,0 0.484375,0.140625 z m 0,0"
             id="id-b1730e47-5977-467c-9eb8-8cd6849963c8" />
        </g>
      </g>
    </g>
    <path
       style="fill:none;stroke:#000000;stroke-width:0.264999;stroke-dasharray:none"
       d="m 37.835416,2.116667 h 27.78125"
       id="path29970" />
    <path
       style="fill:none;stroke:#000000;stroke-width:0.264999;stroke-dasharray:0.264999,0.264999;stroke-dashoffset:0"
       d="m 37.835416,2.116667 v 27.781249 h 27.78125"
       id="path30533" />
  </g>
</svg>
