<?xml version="1.0" encoding="UTF-8" standalone="no"?>
<!-- Created with Inkscape (http://www.inkscape.org/) -->

<svg
   width="256"
   height="256"
   viewBox="0 0 67.733332 67.733333"
   version="1.1"
   id="svg10613"
   inkscape:version="1.2.2 (732a01da63, 2022-12-09)"
   sodipodi:docname="4_1.svg"
   xmlns:inkscape="http://www.inkscape.org/namespaces/inkscape"
   xmlns:sodipodi="http://sodipodi.sourceforge.net/DTD/sodipodi-0.dtd"
   xmlns="http://www.w3.org/2000/svg"
   xmlns:svg="http://www.w3.org/2000/svg"
   xmlns:ns11="http://www.iki.fi/pav/software/textext/">
  <sodipodi:namedview
     id="namedview10615"
     pagecolor="#ffffff"
     bordercolor="#000000"
     borderopacity="0.25"
     inkscape:showpageshadow="2"
     inkscape:pageopacity="0.0"
     inkscape:pagecheckerboard="0"
     inkscape:deskcolor="#d1d1d1"
     inkscape:document-units="mm"
     showgrid="true"
     inkscape:zoom="2.0888419"
     inkscape:cx="-57.448101"
     inkscape:cy="165.64202"
     inkscape:window-width="1920"
     inkscape:window-height="1009"
     inkscape:window-x="-8"
     inkscape:window-y="-8"
     inkscape:window-maximized="1"
     inkscape:current-layer="layer1">
    <inkscape:grid
       type="xygrid"
       id="grid11097"
       empspacing="5"
       originx="33.866666"
       originy="33.866667" />
  </sodipodi:namedview>
  <defs
     id="defs10610">
    <marker
       style="overflow:visible"
       id="marker2840"
       refX="0"
       refY="0"
       orient="auto"
       inkscape:stockid="Dot"
       markerWidth="5.6666665"
       markerHeight="5.6666665"
       viewBox="0 0 5.6666667 5.6666667"
       inkscape:isstock="true"
       inkscape:collect="always"
       preserveAspectRatio="xMidYMid">
      <path
         transform="scale(0.5)"
         style="fill:context-stroke;fill-rule:evenodd;stroke:context-stroke;stroke-width:1pt"
         d="M 5,0 C 5,2.76 2.76,5 0,5 -2.76,5 -5,2.76 -5,0 c 0,-2.76 2.3,-5 5,-5 2.76,0 5,2.24 5,5 z"
         id="path2838"
         sodipodi:nodetypes="sssss" />
    </marker>
    <marker
       style="overflow:visible"
       id="Dot"
       refX="0"
       refY="0"
       orient="auto"
       inkscape:stockid="Dot"
       markerWidth="5.6666665"
       markerHeight="5.6666665"
       viewBox="0 0 5.6666667 5.6666667"
       inkscape:isstock="true"
       inkscape:collect="always"
       preserveAspectRatio="xMidYMid">
      <path
         transform="scale(0.5)"
         style="fill:context-stroke;fill-rule:evenodd;stroke:context-stroke;stroke-width:1pt"
         d="M 5,0 C 5,2.76 2.76,5 0,5 -2.76,5 -5,2.76 -5,0 c 0,-2.76 2.3,-5 5,-5 2.76,0 5,2.24 5,5 z"
         id="Dot1"
         sodipodi:nodetypes="sssss" />
    </marker>
    <rect
       x="32.999997"
       y="138"
       width="40"
       height="30"
       id="rect32654" />
    <marker
       style="overflow:visible"
       id="marker21006"
       refX="0"
       refY="0"
       orient="auto-start-reverse"
       inkscape:stockid="Arrow1L"
       markerWidth="8.75"
       markerHeight="5"
       viewBox="0 0 8.75 5"
       inkscape:isstock="true"
       inkscape:collect="always"
       preserveAspectRatio="xMidYMid">
      <path
         style="fill:context-stroke;fill-rule:evenodd;stroke:none"
         d="M 0,0 5,-5 -12.5,0 5,5 Z"
         id="path21004"
         transform="scale(-0.5)" />
    </marker>
    <marker
       style="overflow:visible"
       id="marker20906"
       refX="0"
       refY="0"
       orient="auto-start-reverse"
       inkscape:stockid="Arrow1L"
       markerWidth="8.75"
       markerHeight="5"
       viewBox="0 0 8.75 5"
       inkscape:isstock="true"
       inkscape:collect="always"
       preserveAspectRatio="xMidYMid">
      <path
         style="fill:context-stroke;fill-rule:evenodd;stroke:none"
         d="M 0,0 5,-5 -12.5,0 5,5 Z"
         id="path20904"
         transform="scale(-0.5)" />
    </marker>
    <marker
       style="overflow:visible"
       id="Arrow1L"
       refX="0"
       refY="0"
       orient="auto-start-reverse"
       inkscape:stockid="Arrow1L"
       markerWidth="8.75"
       markerHeight="5"
       viewBox="0 0 8.75 5"
       inkscape:isstock="true"
       inkscape:collect="always"
       preserveAspectRatio="xMidYMid">
      <path
         style="fill:context-stroke;fill-rule:evenodd;stroke:none"
         d="M 0,0 5,-5 -12.5,0 5,5 Z"
         id="arrow1L"
         transform="scale(-0.5)" />
    </marker>
  </defs>
  <g
     inkscape:label="Layer 1"
     inkscape:groupmode="layer"
     id="layer1">
    <path
       style="fill:none;stroke:#000000;stroke-width:0.264999;stroke-dasharray:none;stroke-dashoffset:0"
       d="m 17.991666,57.679166 v -15.875"
       id="path15287" />
    <path
       style="fill:none;stroke:#000000;stroke-width:0.264999;stroke-dasharray:none;stroke-dashoffset:0"
       d="m 10.054166,49.741666 h 15.875"
       id="path15289" />
    <path
       style="fill:none;stroke:#000000;stroke-width:0.264999;stroke-dasharray:none;stroke-dashoffset:0"
       d="m 25.929166,49.741666 c 0,0 0,0 0,0 z"
       id="path15291" />
    <path
       style="fill:none;stroke:#000000;stroke-width:0.264999;stroke-dasharray:none;stroke-dashoffset:0;marker-end:url(#Arrow1L)"
       d="m 25.929166,49.741666 h 7.9375"
       id="path15293" />
    <path
       style="fill:none;stroke:#000000;stroke-width:0.264999;stroke-dasharray:none;stroke-dashoffset:0"
       d="m 10.054166,49.741666 h -7.9375"
       id="path15295" />
    <path
       style="fill:none;stroke:#000000;stroke-width:0.264999;stroke-dasharray:none;stroke-dashoffset:0;marker-end:url(#marker20906)"
       d="m 17.991666,41.804166 v -7.9375"
       id="path15297" />
    <path
       style="fill:none;stroke:#000000;stroke-width:0.264999;stroke-dasharray:none;stroke-dashoffset:0"
       d="m 17.991666,57.679166 v 7.9375"
       id="path15299" />
    <path
       style="fill:none;stroke:#000000;stroke-width:0.264999;stroke-dasharray:none;stroke-dashoffset:0;marker-start:url(#marker21006)"
       d="m 2.116666,65.616666 15.875,-15.875"
       id="path15303" />
    <path
       style="fill:none;stroke:#000000;stroke-width:0.264999;stroke-dasharray:0.264999,0.264999;stroke-dashoffset:0"
       d="m 17.991666,49.741666 15.875,-15.875 31.749999,-31.749999"
       id="path15305" />
    <path
       style="fill:none;stroke:#000000;stroke-width:0.264999;stroke-dasharray:none;stroke-dashoffset:0"
       d="M 65.616666,2.116667 V 28.575 l 0,1.322917"
       id="path15372" />
    <path
       style="fill:none;stroke:#000000;stroke-width:0.264999;stroke-dasharray:none;stroke-dashoffset:0"
       d="M 37.835416,2.116667 17.991666,49.741666"
       id="path16828" />
    <path
       style="fill:none;stroke:#000000;stroke-width:0.264999;stroke-dasharray:none;stroke-dashoffset:0"
       d="m 65.616666,29.897916 -47.625,19.84375"
       id="path16830" />
    <path
       style="fill:none;stroke:#000000;stroke-width:0.264999;stroke-dasharray:none;stroke-dashoffset:0"
       d="m 65.616666,2.116667 -47.625,47.624999"
       id="path16832" />
    <text
       xml:space="preserve"
       transform="scale(0.26458333)"
       id="text32652"
       style="font-style:italic;font-variant:normal;font-weight:normal;font-stretch:normal;font-family:'Times New Roman';-inkscape-font-specification:'Times New Roman,  Italic';white-space:pre;shape-inside:url(#rect32654);display:inline;fill:none;stroke:#000000;stroke-width:1.00157;stroke-dasharray:none;stroke-dashoffset:0" />
    <path
       style="fill:none;stroke:#000000;stroke-width:0.264999"
       d="M 30.669616,19.314583 Z"
       id="path706" />
    <path
       style="fill:none;stroke:#000000;stroke-width:0.264999;stroke-dasharray:0.264999, 0.264999;stroke-dashoffset:0"
       d="M 48.418749,37.063714 Z"
       id="path3579" />
    <path
       style="fill:none;stroke:#000000;stroke-width:0.264999;stroke-dasharray:none;stroke-dashoffset:0"
       d="M 48.418749,37.063714 Z"
       id="path3581" />
    <path
       style="fill:none;stroke:#000000;stroke-width:0.264999;stroke-dasharray:none;stroke-dashoffset:0;marker-end:url(#Dot)"
       d="M 49.741666,17.991667 V 36.5125"
       id="path3941" />
    <path
       style="fill:none;stroke:#000000;stroke-width:0.264999;stroke-dasharray:none;stroke-dashoffset:0;marker-end:"
       d="M 49.741666,17.991667 H 31.220833"
       id="path4023" />
    <path
       style="fill:none;stroke:#000000;stroke-width:0.264999;stroke-dasharray:0.264999,0.264999;stroke-dashoffset:0"
       d="M 49.741666,36.5125 H 31.220833 V 17.991667"
       id="path4125" />
    <g
       transform="matrix(0.352778,0,0,0.352778,4.070856,64.161281)"
       ns11:version="1.8.2"
       ns11:texconverter="pdflatex"
       ns11:pdfconverter="inkscape"
       ns11:text="$\\boldsymbol{+z}$"
       ns11:preamble="C:\Users\Yune\AppData\Roaming\inkscape\extensions\textext\default_packages.tex"
       ns11:scale="1.0"
       ns11:alignment="middle center"
       ns11:stroke-to-path="0"
       ns11:inkscapeversion="1.2.2"
       ns11:jacobian_sqrt="0.352778"
       id="g1975">
      <defs
         id="id-73d8e40f-0952-4e7f-82ea-35cfcd4ed133">
        <g
           id="id-7680943c-a305-4b6e-a9a2-81772d02ab84">
          <g
             id="id-5e731c4f-47b4-4aa1-b173-337521069917" />
          <g
             id="id-c6e0585c-bb6f-4393-942d-0b27da0e8f91">
            <path
               d="m 4.75,-2.1875 h 3.078125 c 0.140625,0 0.4375,0 0.4375,-0.3125 0,-0.296875 -0.296875,-0.296875 -0.4375,-0.296875 H 4.75 v -3.09375 c 0,-0.125 0,-0.421875 -0.296875,-0.421875 -0.3125,0 -0.3125,0.296875 -0.3125,0.421875 v 3.09375 H 1.0625 c -0.140625,0 -0.421875,0 -0.421875,0.296875 0,0.3125 0.296875,0.3125 0.421875,0.3125 h 3.078125 v 3.078125 c 0,0.125 0,0.421875 0.3125,0.421875 C 4.75,1.3125 4.75,1.03125 4.75,0.890625 Z m 0,0"
               id="id-25404370-af6f-4ad3-90db-75fed81eb9ca" />
          </g>
          <g
             id="id-18b1e554-d9d4-4e74-a7f1-c207ef735762" />
          <g
             id="id-456d5590-8dff-467f-ba3c-afa6e186d77a">
            <path
               d="m 2.40625,-3.40625 c 0.140625,0 0.265625,0 0.40625,0 0.390625,-0.015625 0.890625,-0.046875 1.28125,-0.0625 -0.28125,0.265625 -0.4375,0.421875 -1.4375,1.1875 -2.015625,1.53125 -2.234375,2.1875 -2.234375,2.21875 0,0.140625 0.140625,0.140625 0.21875,0.140625 0.171875,0 0.171875,-0.015625 0.25,-0.109375 0.359375,-0.5 0.71875,-0.5625 0.890625,-0.5625 0.265625,0 0.484375,0.171875 0.640625,0.28125 0.3125,0.21875 0.5625,0.390625 0.9375,0.390625 1.109375,0 1.84375,-1.21875 1.84375,-1.59375 0,-0.140625 -0.171875,-0.140625 -0.234375,-0.140625 -0.078125,0 -0.1875,0 -0.21875,0.09375 -0.078125,0.1875 -0.1875,0.4375 -0.859375,0.515625 -0.046875,0.015625 -2,0.09375 -2.21875,0.09375 0.28125,-0.265625 0.4375,-0.421875 1.453125,-1.1875 2.015625,-1.53125 2.234375,-2.1875 2.234375,-2.21875 C 5.359375,-4.5 5.21875,-4.5 5.140625,-4.5 c -0.15625,0 -0.171875,0 -0.234375,0.09375 -0.234375,0.34375 -0.4375,0.578125 -0.671875,0.578125 -0.25,0 -0.46875,-0.15625 -0.703125,-0.3125 C 3.296875,-4.328125 3.046875,-4.5 2.671875,-4.5 c -0.875,0 -1.453125,0.875 -1.453125,1.1875 0,0.140625 0.171875,0.140625 0.25,0.140625 0.09375,0 0.203125,0 0.21875,-0.125 C 1.828125,-3.375 1.90625,-3.375 2.203125,-3.40625 Z m 0,0"
               id="id-07f7bbd0-b420-4016-a123-7e42dff8ebdb" />
          </g>
        </g>
      </defs>
      <g
         fill="#000000"
         fill-opacity="1"
         id="id-122a6c3d-3705-4a9b-8b1e-c9f787139de6"
         transform="translate(-149.353,-128.452)">
        <g
           transform="translate(148.712,134.765)"
           id="g6151">
          <path
             d="m 4.75,-2.1875 h 3.078125 c 0.140625,0 0.4375,0 0.4375,-0.3125 0,-0.296875 -0.296875,-0.296875 -0.4375,-0.296875 H 4.75 v -3.09375 c 0,-0.125 0,-0.421875 -0.296875,-0.421875 -0.3125,0 -0.3125,0.296875 -0.3125,0.421875 v 3.09375 H 1.0625 c -0.140625,0 -0.421875,0 -0.421875,0.296875 0,0.3125 0.296875,0.3125 0.421875,0.3125 h 3.078125 v 3.078125 c 0,0.125 0,0.421875 0.3125,0.421875 C 4.75,1.3125 4.75,1.03125 4.75,0.890625 Z m 0,0"
             id="id-aa00870d-6ed2-4820-8637-7b6104213325" />
        </g>
      </g>
      <g
         fill="#000000"
         fill-opacity="1"
         id="id-f8ead147-72b7-42c7-9fc1-08a7bc1ced84"
         transform="translate(-149.353,-128.452)">
        <g
           transform="translate(157.623,134.765)"
           id="g6155">
          <path
             d="m 2.40625,-3.40625 c 0.140625,0 0.265625,0 0.40625,0 0.390625,-0.015625 0.890625,-0.046875 1.28125,-0.0625 -0.28125,0.265625 -0.4375,0.421875 -1.4375,1.1875 -2.015625,1.53125 -2.234375,2.1875 -2.234375,2.21875 0,0.140625 0.140625,0.140625 0.21875,0.140625 0.171875,0 0.171875,-0.015625 0.25,-0.109375 0.359375,-0.5 0.71875,-0.5625 0.890625,-0.5625 0.265625,0 0.484375,0.171875 0.640625,0.28125 0.3125,0.21875 0.5625,0.390625 0.9375,0.390625 1.109375,0 1.84375,-1.21875 1.84375,-1.59375 0,-0.140625 -0.171875,-0.140625 -0.234375,-0.140625 -0.078125,0 -0.1875,0 -0.21875,0.09375 -0.078125,0.1875 -0.1875,0.4375 -0.859375,0.515625 -0.046875,0.015625 -2,0.09375 -2.21875,0.09375 0.28125,-0.265625 0.4375,-0.421875 1.453125,-1.1875 2.015625,-1.53125 2.234375,-2.1875 2.234375,-2.21875 C 5.359375,-4.5 5.21875,-4.5 5.140625,-4.5 c -0.15625,0 -0.171875,0 -0.234375,0.09375 -0.234375,0.34375 -0.4375,0.578125 -0.671875,0.578125 -0.25,0 -0.46875,-0.15625 -0.703125,-0.3125 C 3.296875,-4.328125 3.046875,-4.5 2.671875,-4.5 c -0.875,0 -1.453125,0.875 -1.453125,1.1875 0,0.140625 0.171875,0.140625 0.25,0.140625 0.09375,0 0.203125,0 0.21875,-0.125 C 1.828125,-3.375 1.90625,-3.375 2.203125,-3.40625 Z m 0,0"
             id="id-5e408ac6-3942-404a-9768-ddf8ea65ee49" />
        </g>
      </g>
    </g>
    <g
       transform="matrix(0.352778,0,0,0.352778,10.79676,32.940448)"
       ns11:version="1.8.2"
       ns11:texconverter="pdflatex"
       ns11:pdfconverter="inkscape"
       ns11:text="$\\boldsymbol{+y}$"
       ns11:preamble="C:\Users\Yune\AppData\Roaming\inkscape\extensions\textext\default_packages.tex"
       ns11:scale="1.0"
       ns11:alignment="middle center"
       ns11:stroke-to-path="0"
       ns11:inkscapeversion="1.2.2"
       ns11:jacobian_sqrt="0.352778"
       id="g1752">
      <defs
         id="id-e613d572-8764-489c-bcf6-f4ff36b4f45a">
        <g
           id="id-343b0113-153e-41e3-80d3-26337470f1c7">
          <g
             id="id-2c89e373-be40-4321-ae2e-bed1d6af323f" />
          <g
             id="id-1b1c1963-3f07-4445-ad33-5ab6ba03dd42">
            <path
               d="m 4.75,-2.1875 h 3.078125 c 0.140625,0 0.4375,0 0.4375,-0.3125 0,-0.296875 -0.296875,-0.296875 -0.4375,-0.296875 H 4.75 v -3.09375 c 0,-0.125 0,-0.421875 -0.296875,-0.421875 -0.3125,0 -0.3125,0.296875 -0.3125,0.421875 v 3.09375 H 1.0625 c -0.140625,0 -0.421875,0 -0.421875,0.296875 0,0.3125 0.296875,0.3125 0.421875,0.3125 h 3.078125 v 3.078125 c 0,0.125 0,0.421875 0.3125,0.421875 C 4.75,1.3125 4.75,1.03125 4.75,0.890625 Z m 0,0"
               id="id-de079ba1-608c-4631-9095-ee01b8c229ca" />
          </g>
          <g
             id="id-7e716ffb-b921-4065-8aa7-31be311e36ac" />
          <g
             id="id-2a3dd4c4-f070-4192-84a8-cad8a480bdd8">
            <path
               d="m 5.75,-3.765625 c 0.046875,-0.171875 0.046875,-0.1875 0.046875,-0.21875 0,-0.21875 -0.15625,-0.4375 -0.46875,-0.4375 -0.515625,0 -0.640625,0.46875 -0.703125,0.734375 L 4.359375,-2.65625 C 4.25,-2.171875 4.0625,-1.40625 3.953125,-1 3.890625,-0.78125 3.59375,-0.53125 3.5625,-0.515625 3.453125,-0.453125 3.203125,-0.28125 2.875,-0.28125 c -0.578125,0 -0.59375,-0.5 -0.59375,-0.71875 0,-0.609375 0.3125,-1.390625 0.59375,-2.109375 C 2.96875,-3.375 3,-3.4375 3,-3.609375 3,-4.1875 2.421875,-4.5 1.875,-4.5 c -1.0625,0 -1.5625,1.34375 -1.5625,1.546875 0,0.140625 0.15625,0.140625 0.25,0.140625 0.109375,0 0.1875,0 0.21875,-0.125 0.328125,-1.109375 0.890625,-1.203125 1.03125,-1.203125 0.078125,0 0.171875,0 0.171875,0.203125 0,0.234375 -0.109375,0.484375 -0.171875,0.640625 -0.390625,1 -0.59375,1.578125 -0.59375,2.078125 0,1.140625 1,1.296875 1.578125,1.296875 0.25,0 0.59375,-0.03125 0.96875,-0.296875 C 3.484375,1 2.734375,1.65625 2.046875,1.65625 1.90625,1.65625 1.640625,1.640625 1.4375,1.515625 1.75,1.390625 1.90625,1.109375 1.90625,0.84375 1.90625,0.484375 1.625,0.390625 1.421875,0.390625 c -0.359375,0 -0.71875,0.3125 -0.71875,0.75 0,0.515625 0.53125,0.875 1.34375,0.875 1.140625,0 2.453125,-0.765625 2.765625,-2 z m 0,0"
               id="id-f86822c6-d736-4815-9b15-fda48a35b7ff" />
          </g>
        </g>
      </defs>
      <g
         fill="#000000"
         fill-opacity="1"
         id="id-2ed4718a-acf7-4508-a840-0bb24e1b5295"
         transform="translate(-149.353,-128.452)">
        <g
           transform="translate(148.712,134.765)"
           id="g6517">
          <path
             d="m 4.75,-2.1875 h 3.078125 c 0.140625,0 0.4375,0 0.4375,-0.3125 0,-0.296875 -0.296875,-0.296875 -0.4375,-0.296875 H 4.75 v -3.09375 c 0,-0.125 0,-0.421875 -0.296875,-0.421875 -0.3125,0 -0.3125,0.296875 -0.3125,0.421875 v 3.09375 H 1.0625 c -0.140625,0 -0.421875,0 -0.421875,0.296875 0,0.3125 0.296875,0.3125 0.421875,0.3125 h 3.078125 v 3.078125 c 0,0.125 0,0.421875 0.3125,0.421875 C 4.75,1.3125 4.75,1.03125 4.75,0.890625 Z m 0,0"
             id="id-9dffb785-eea2-4359-b2eb-9c2c83d89583" />
        </g>
      </g>
      <g
         fill="#000000"
         fill-opacity="1"
         id="id-6bbd9420-cc32-4d28-8b43-aad514a1457f"
         transform="translate(-149.353,-128.452)">
        <g
           transform="translate(157.623,134.765)"
           id="g6521">
          <path
             d="m 5.75,-3.765625 c 0.046875,-0.171875 0.046875,-0.1875 0.046875,-0.21875 0,-0.21875 -0.15625,-0.4375 -0.46875,-0.4375 -0.515625,0 -0.640625,0.46875 -0.703125,0.734375 L 4.359375,-2.65625 C 4.25,-2.171875 4.0625,-1.40625 3.953125,-1 3.890625,-0.78125 3.59375,-0.53125 3.5625,-0.515625 3.453125,-0.453125 3.203125,-0.28125 2.875,-0.28125 c -0.578125,0 -0.59375,-0.5 -0.59375,-0.71875 0,-0.609375 0.3125,-1.390625 0.59375,-2.109375 C 2.96875,-3.375 3,-3.4375 3,-3.609375 3,-4.1875 2.421875,-4.5 1.875,-4.5 c -1.0625,0 -1.5625,1.34375 -1.5625,1.546875 0,0.140625 0.15625,0.140625 0.25,0.140625 0.109375,0 0.1875,0 0.21875,-0.125 0.328125,-1.109375 0.890625,-1.203125 1.03125,-1.203125 0.078125,0 0.171875,0 0.171875,0.203125 0,0.234375 -0.109375,0.484375 -0.171875,0.640625 -0.390625,1 -0.59375,1.578125 -0.59375,2.078125 0,1.140625 1,1.296875 1.578125,1.296875 0.25,0 0.59375,-0.03125 0.96875,-0.296875 C 3.484375,1 2.734375,1.65625 2.046875,1.65625 1.90625,1.65625 1.640625,1.640625 1.4375,1.515625 1.75,1.390625 1.90625,1.109375 1.90625,0.84375 1.90625,0.484375 1.625,0.390625 1.421875,0.390625 c -0.359375,0 -0.71875,0.3125 -0.71875,0.75 0,0.515625 0.53125,0.875 1.34375,0.875 1.140625,0 2.453125,-0.765625 2.765625,-2 z m 0,0"
             id="id-1a99fcbb-0fa2-4596-9997-5f82bcbc42bf" />
        </g>
      </g>
    </g>
    <g
       transform="matrix(0.352778,0,0,0.352778,30.574364,51.32899)"
       ns11:version="1.8.2"
       ns11:texconverter="pdflatex"
       ns11:pdfconverter="inkscape"
       ns11:text="$\\boldsymbol{+x}$"
       ns11:preamble="C:\Users\Yune\AppData\Roaming\inkscape\extensions\textext\default_packages.tex"
       ns11:scale="1.0"
       ns11:alignment="middle center"
       ns11:stroke-to-path="0"
       ns11:inkscapeversion="1.2.2"
       ns11:jacobian_sqrt="0.352778"
       id="g1547">
      <defs
         id="id-e24492e9-6624-408b-ad03-ea80c99f8e9a">
        <g
           id="id-be473312-5259-4d63-a0e6-cdea8fc92b09">
          <g
             id="id-8ae2e84d-a6c4-4d4b-b2a5-c820a8461c1d" />
          <g
             id="id-308b478a-4706-4641-bcab-3f0aa203220c">
            <path
               d="m 4.75,-2.1875 h 3.078125 c 0.140625,0 0.4375,0 0.4375,-0.3125 0,-0.296875 -0.296875,-0.296875 -0.4375,-0.296875 H 4.75 v -3.09375 c 0,-0.125 0,-0.421875 -0.296875,-0.421875 -0.3125,0 -0.3125,0.296875 -0.3125,0.421875 v 3.09375 H 1.0625 c -0.140625,0 -0.421875,0 -0.421875,0.296875 0,0.3125 0.296875,0.3125 0.421875,0.3125 h 3.078125 v 3.078125 c 0,0.125 0,0.421875 0.3125,0.421875 C 4.75,1.3125 4.75,1.03125 4.75,0.890625 Z m 0,0"
               id="id-da932567-bd63-4cfc-a11a-611b8d69285f" />
          </g>
          <g
             id="id-191871b7-8f16-4b06-a822-be621b940a7a" />
          <g
             id="id-36d83f81-f6a2-440f-93e7-decac68758c9">
            <path
               d="m 5.34375,-4 c -0.359375,0.109375 -0.53125,0.4375 -0.53125,0.6875 0,0.21875 0.15625,0.46875 0.484375,0.46875 0.359375,0 0.71875,-0.296875 0.71875,-0.78125 C 6.015625,-4.15625 5.5,-4.5 4.890625,-4.5 4.3125,-4.5 3.953125,-4.078125 3.8125,-3.890625 3.5625,-4.3125 3.015625,-4.5 2.4375,-4.5 c -1.25,0 -1.921875,1.21875 -1.921875,1.546875 0,0.140625 0.140625,0.140625 0.234375,0.140625 0.125,0 0.1875,0 0.234375,-0.125 0.28125,-0.90625 1,-1.203125 1.40625,-1.203125 0.375,0 0.5625,0.171875 0.5625,0.484375 0,0.203125 -0.140625,0.75 -0.234375,1.109375 L 2.375,-1.1875 c -0.140625,0.609375 -0.5,0.90625 -0.84375,0.90625 -0.046875,0 -0.28125,0 -0.46875,-0.140625 0.359375,-0.109375 0.53125,-0.453125 0.53125,-0.6875 0,-0.21875 -0.171875,-0.46875 -0.5,-0.46875 -0.34375,0 -0.71875,0.296875 -0.71875,0.78125 0,0.53125 0.53125,0.875 1.140625,0.875 0.5625,0 0.9375,-0.421875 1.0625,-0.609375 0.25,0.421875 0.8125,0.609375 1.375,0.609375 1.265625,0 1.9375,-1.21875 1.9375,-1.546875 0,-0.140625 -0.15625,-0.140625 -0.234375,-0.140625 -0.125,0 -0.1875,0 -0.234375,0.125 -0.28125,0.90625 -1,1.203125 -1.421875,1.203125 -0.375,0 -0.546875,-0.171875 -0.546875,-0.5 0,-0.203125 0.125,-0.734375 0.21875,-1.109375 0.0625,-0.25 0.296875,-1.1875 0.34375,-1.34375 0.15625,-0.609375 0.5,-0.90625 0.84375,-0.90625 0.0625,0 0.28125,0 0.484375,0.140625 z m 0,0"
               id="id-16872bfd-5fd5-4941-bbdb-237d8e0ebcc7" />
          </g>
        </g>
      </defs>
      <g
         fill="#000000"
         fill-opacity="1"
         id="id-ac1b879e-e7e7-4d57-b018-9be3a6510dcc"
         transform="translate(-149.353,-128.452)">
        <g
           transform="translate(148.712,134.765)"
           id="g6895">
          <path
             d="m 4.75,-2.1875 h 3.078125 c 0.140625,0 0.4375,0 0.4375,-0.3125 0,-0.296875 -0.296875,-0.296875 -0.4375,-0.296875 H 4.75 v -3.09375 c 0,-0.125 0,-0.421875 -0.296875,-0.421875 -0.3125,0 -0.3125,0.296875 -0.3125,0.421875 v 3.09375 H 1.0625 c -0.140625,0 -0.421875,0 -0.421875,0.296875 0,0.3125 0.296875,0.3125 0.421875,0.3125 h 3.078125 v 3.078125 c 0,0.125 0,0.421875 0.3125,0.421875 C 4.75,1.3125 4.75,1.03125 4.75,0.890625 Z m 0,0"
             id="id-6b018679-55a1-4ed6-b155-9ea0fb9aeda6" />
        </g>
      </g>
      <g
         fill="#000000"
         fill-opacity="1"
         id="id-4bf197f4-b7d4-4cac-8c87-78c6f547407b"
         transform="translate(-149.353,-128.452)">
        <g
           transform="translate(157.623,134.765)"
           id="g6899">
          <path
             d="m 5.34375,-4 c -0.359375,0.109375 -0.53125,0.4375 -0.53125,0.6875 0,0.21875 0.15625,0.46875 0.484375,0.46875 0.359375,0 0.71875,-0.296875 0.71875,-0.78125 C 6.015625,-4.15625 5.5,-4.5 4.890625,-4.5 4.3125,-4.5 3.953125,-4.078125 3.8125,-3.890625 3.5625,-4.3125 3.015625,-4.5 2.4375,-4.5 c -1.25,0 -1.921875,1.21875 -1.921875,1.546875 0,0.140625 0.140625,0.140625 0.234375,0.140625 0.125,0 0.1875,0 0.234375,-0.125 0.28125,-0.90625 1,-1.203125 1.40625,-1.203125 0.375,0 0.5625,0.171875 0.5625,0.484375 0,0.203125 -0.140625,0.75 -0.234375,1.109375 L 2.375,-1.1875 c -0.140625,0.609375 -0.5,0.90625 -0.84375,0.90625 -0.046875,0 -0.28125,0 -0.46875,-0.140625 0.359375,-0.109375 0.53125,-0.453125 0.53125,-0.6875 0,-0.21875 -0.171875,-0.46875 -0.5,-0.46875 -0.34375,0 -0.71875,0.296875 -0.71875,0.78125 0,0.53125 0.53125,0.875 1.140625,0.875 0.5625,0 0.9375,-0.421875 1.0625,-0.609375 0.25,0.421875 0.8125,0.609375 1.375,0.609375 1.265625,0 1.9375,-1.21875 1.9375,-1.546875 0,-0.140625 -0.15625,-0.140625 -0.234375,-0.140625 -0.125,0 -0.1875,0 -0.234375,0.125 -0.28125,0.90625 -1,1.203125 -1.421875,1.203125 -0.375,0 -0.546875,-0.171875 -0.546875,-0.5 0,-0.203125 0.125,-0.734375 0.21875,-1.109375 0.0625,-0.25 0.296875,-1.1875 0.34375,-1.34375 0.15625,-0.609375 0.5,-0.90625 0.84375,-0.90625 0.0625,0 0.28125,0 0.484375,0.140625 z m 0,0"
             id="id-b1730e47-5977-467c-9eb8-8cd6849963c8" />
        </g>
      </g>
    </g>
    <path
       style="fill:none;stroke:#000000;stroke-width:0.264999;stroke-dasharray:none;marker-start:url(#marker2840)"
       d="m 37.835416,2.116667 h 27.78125"
       id="path29970" />
    <path
       style="fill:none;stroke:#000000;stroke-width:0.264999;stroke-dasharray:0.264999,0.264999;stroke-dashoffset:0"
       d="m 37.835416,2.116667 v 27.781249 h 27.78125"
       id="path30533" />
    <g
       transform="matrix(0.352778,0,0,0.352778,17.360182,0.79388263)"
       ns11:version="1.8.2"
       ns11:texconverter="pdflatex"
       ns11:pdfconverter="inkscape"
       ns11:text="$\\boldsymbol{(l,t,-z_{far})}$"
       ns11:preamble="C:\Users\Yune\AppData\Roaming\inkscape\extensions\textext\default_packages.tex"
       ns11:scale="1.0"
       ns11:alignment="middle center"
       ns11:stroke-to-path="0"
       ns11:inkscapeversion="1.2.2"
       ns11:jacobian_sqrt="0.352778"
       id="g2630">
      <defs
         id="id-a8729e80-58f6-4ca5-8af9-ab4f3d59a794">
        <g
           id="id-c6f14632-e992-479f-a8d0-24aa3ffa193d">
          <g
             id="id-28dc7768-a9c7-47d6-ab26-a7301d43d574" />
          <g
             id="id-2b4c1a2b-211f-46ae-aed6-5a3aa762d852">
            <path
               d="M 3.78125,2.25 C 3.484375,1.96875 2.84375,1.359375 2.421875,0.09375 2.15625,-0.703125 2.046875,-1.609375 2.046875,-2.5 c 0,-1.953125 0.5,-3.515625 1.609375,-4.625 0.140625,-0.15625 0.15625,-0.15625 0.15625,-0.21875 0,-0.109375 -0.109375,-0.140625 -0.1875,-0.140625 -0.171875,0 -0.578125,0.375 -0.765625,0.546875 -1.546875,1.546875 -1.78125,3.375 -1.78125,4.4375 0,1.25 0.328125,2.34375 0.796875,3.171875 0.65625,1.140625 1.5625,1.8125 1.75,1.8125 0.078125,0 0.1875,-0.03125 0.1875,-0.140625 C 3.8125,2.296875 3.78125,2.25 3.78125,2.25 Z m 0,0"
               id="id-3c038050-6acb-4a15-9a50-ef2c30608260" />
          </g>
          <g
             id="id-4f99d333-b51e-425d-839a-631d3092a8b5">
            <path
               d="M 3.375,-2.5 C 3.375,-3.734375 3.046875,-4.828125 2.578125,-5.65625 1.90625,-6.8125 1,-7.484375 0.8125,-7.484375 c -0.078125,0 -0.171875,0.03125 -0.171875,0.140625 0,0.0625 0,0.078125 0.171875,0.234375 1.25,1.28125 1.59375,3.046875 1.59375,4.609375 0,1.96875 -0.515625,3.53125 -1.609375,4.640625 -0.15625,0.140625 -0.15625,0.15625 -0.15625,0.203125 0,0.109375 0.09375,0.140625 0.171875,0.140625 0.171875,0 0.59375,-0.375 0.765625,-0.546875 C 3.140625,0.40625 3.375,-1.4375 3.375,-2.5 Z m 0,0"
               id="id-b5b13bab-1ccd-4266-9357-0d20e0f262d0" />
          </g>
          <g
             id="id-aa61264b-24ab-441c-bdeb-e973fbd14d73" />
          <g
             id="id-0b0e9f31-3625-45c4-836e-1f6049ba4680">
            <path
               d="M 2.828125,-6.5625 C 2.875,-6.703125 2.875,-6.734375 2.875,-6.734375 c 0,-0.140625 -0.109375,-0.1875 -0.21875,-0.1875 -0.046875,0 -0.046875,0 -0.078125,0.015625 l -1.28125,0.0625 c -0.140625,0 -0.3125,0.015625 -0.3125,0.296875 0,0.171875 0.1875,0.171875 0.25,0.171875 0.109375,0 0.296875,0 0.421875,0.03125 L 0.375,-1.234375 C 0.34375,-1.125 0.328125,-1.03125 0.328125,-0.890625 c 0,0.65625 0.65625,0.96875 1.25,0.96875 0.359375,0 0.640625,-0.203125 0.859375,-0.5625 0.25,-0.390625 0.390625,-0.9375 0.390625,-0.984375 0,-0.140625 -0.15625,-0.140625 -0.25,-0.140625 -0.109375,0 -0.140625,0 -0.203125,0.046875 -0.015625,0.015625 -0.015625,0.03125 -0.078125,0.28125 -0.1875,0.765625 -0.40625,1 -0.671875,1 -0.15625,0 -0.234375,-0.09375 -0.234375,-0.359375 0,-0.203125 0.03125,-0.296875 0.0625,-0.4375 z m 0,0"
               id="id-09503e4b-7e22-4e71-820d-2733d098b7f7" />
          </g>
          <g
             id="id-8e83b085-9cb1-47c6-bc5f-1383c928402b">
            <path
               d="M 2.140625,-0.203125 C 2.109375,0.421875 1.796875,1.09375 1.25,1.5625 1.109375,1.671875 1.109375,1.6875 1.109375,1.75 c 0,0.0625 0.109375,0.1875 0.1875,0.1875 C 1.4375,1.9375 2.5,1.0625 2.5,-0.3125 2.5,-1 2.140625,-1.5625 1.578125,-1.5625 1.109375,-1.5625 0.8125,-1.203125 0.8125,-0.78125 0.8125,-0.375 1.09375,0 1.578125,0 c 0.25,0 0.4375,-0.09375 0.5625,-0.203125 z m 0,0"
               id="id-9b1c3be2-36a1-4ca8-b50b-901d9ed1c5e5" />
          </g>
          <g
             id="id-50db10ed-4c06-4282-9eb2-e0d3d1f05d8b">
            <path
               d="M 2.515625,-3.953125 H 3.40625 c 0.1875,0 0.21875,0 0.265625,-0.046875 0.0625,-0.046875 0.09375,-0.1875 0.09375,-0.25 0,-0.171875 -0.171875,-0.171875 -0.34375,-0.171875 H 2.625 L 2.953125,-5.71875 c 0.03125,-0.15625 0.03125,-0.21875 0.03125,-0.25 0,-0.328125 -0.25,-0.4375 -0.46875,-0.4375 -0.140625,0 -0.40625,0.0625 -0.578125,0.34375 C 1.90625,-5.984375 1.78125,-5.515625 1.71875,-5.25 L 1.515625,-4.421875 H 0.625 c -0.203125,0 -0.375,0 -0.375,0.28125 0,0.1875 0.15625,0.1875 0.34375,0.1875 H 1.390625 L 0.828125,-1.6875 C 0.75,-1.421875 0.65625,-1 0.65625,-0.890625 c 0,0.640625 0.640625,0.96875 1.25,0.96875 1.1875,0 1.875,-1.390625 1.875,-1.546875 0,-0.140625 -0.15625,-0.140625 -0.25,-0.140625 -0.15625,0 -0.171875,0 -0.234375,0.15625 -0.390625,0.859375 -0.9375,1.171875 -1.328125,1.171875 -0.09375,0 -0.25,0 -0.25,-0.359375 0,-0.203125 0.03125,-0.3125 0.0625,-0.4375 z m 0,0"
               id="id-89240208-8de8-45b7-b77e-5c531c99b852" />
          </g>
          <g
             id="id-f584baf2-fa68-469a-a5ac-8ebbb978791f">
            <path
               d="m 2.40625,-3.40625 c 0.140625,0 0.265625,0 0.40625,0 0.390625,-0.015625 0.890625,-0.046875 1.28125,-0.0625 -0.28125,0.265625 -0.4375,0.421875 -1.4375,1.1875 -2.015625,1.53125 -2.234375,2.1875 -2.234375,2.21875 0,0.140625 0.140625,0.140625 0.21875,0.140625 0.171875,0 0.171875,-0.015625 0.25,-0.109375 0.359375,-0.5 0.71875,-0.5625 0.890625,-0.5625 0.265625,0 0.484375,0.171875 0.640625,0.28125 0.3125,0.21875 0.5625,0.390625 0.9375,0.390625 1.109375,0 1.84375,-1.21875 1.84375,-1.59375 0,-0.140625 -0.171875,-0.140625 -0.234375,-0.140625 -0.078125,0 -0.1875,0 -0.21875,0.09375 -0.078125,0.1875 -0.1875,0.4375 -0.859375,0.515625 -0.046875,0.015625 -2,0.09375 -2.21875,0.09375 0.28125,-0.265625 0.4375,-0.421875 1.453125,-1.1875 2.015625,-1.53125 2.234375,-2.1875 2.234375,-2.21875 C 5.359375,-4.5 5.21875,-4.5 5.140625,-4.5 c -0.15625,0 -0.171875,0 -0.234375,0.09375 -0.234375,0.34375 -0.4375,0.578125 -0.671875,0.578125 -0.25,0 -0.46875,-0.15625 -0.703125,-0.3125 C 3.296875,-4.328125 3.046875,-4.5 2.671875,-4.5 c -0.875,0 -1.453125,0.875 -1.453125,1.1875 0,0.140625 0.171875,0.140625 0.25,0.140625 0.09375,0 0.203125,0 0.21875,-0.125 C 1.828125,-3.375 1.90625,-3.375 2.203125,-3.40625 Z m 0,0"
               id="id-803f4f71-2027-46c5-8833-251f03a50ebd" />
          </g>
          <g
             id="id-653b5143-1e0d-4699-8357-fbb06ed01a55" />
          <g
             id="id-9f4c0f66-123b-436d-971d-22a90eaa3472">
            <path
               d="m 7.5,-2.1875 c 0.140625,0 0.4375,0 0.4375,-0.3125 0,-0.296875 -0.28125,-0.296875 -0.4375,-0.296875 H 1.40625 c -0.15625,0 -0.453125,0 -0.453125,0.296875 0,0.3125 0.296875,0.3125 0.453125,0.3125 z m 0,0"
               id="id-7f15e097-640d-41d9-bb8b-90db613a0fbf" />
          </g>
          <g
             id="id-beeb3860-ae30-423c-869b-b7d8b15a287a" />
          <g
             id="id-b61e6616-bb82-4c6d-b63c-133b6b00f258">
            <path
               d="m 3.265625,-2.703125 h 0.90625 c 0.125,0 0.28125,0 0.28125,-0.234375 0,-0.15625 -0.15625,-0.15625 -0.265625,-0.15625 H 3.328125 c 0.09375,-0.515625 0.203125,-1.21875 0.234375,-1.3125 0,-0.015625 0.09375,-0.171875 0.28125,-0.171875 0.0625,0 0.203125,0.03125 0.203125,0.046875 0,0 -0.03125,0.015625 -0.046875,0.046875 C 3.875,-4.375 3.8125,-4.1875 3.8125,-4.09375 c 0,0.234375 0.171875,0.375 0.390625,0.375 0.265625,0 0.546875,-0.234375 0.546875,-0.578125 0,-0.40625 -0.421875,-0.59375 -0.90625,-0.59375 -0.46875,0 -0.828125,0.1875 -1.03125,0.5 C 2.640625,-4.125 2.578125,-3.875 2.46875,-3.09375 H 1.703125 c -0.125,0 -0.15625,0 -0.203125,0.046875 -0.046875,0.03125 -0.078125,0.140625 -0.078125,0.1875 0,0.15625 0.15625,0.15625 0.265625,0.15625 H 2.390625 C 2.390625,-2.65625 2,-0.3125 1.859375,0.375 c -0.0625,0.34375 -0.078125,0.390625 -0.1875,0.546875 -0.078125,0.125 -0.15625,0.171875 -0.25,0.171875 -0.0625,0 -0.1875,-0.015625 -0.1875,-0.046875 0,0 0.03125,-0.015625 0.046875,-0.046875 0.140625,-0.109375 0.1875,-0.296875 0.1875,-0.390625 0,-0.234375 -0.171875,-0.375 -0.390625,-0.375 -0.265625,0 -0.546875,0.234375 -0.546875,0.578125 0,0.40625 0.453125,0.59375 0.875,0.59375 0.46875,0 0.875,-0.359375 1.078125,-0.6875 C 2.75,0.296875 2.90625,-0.640625 2.921875,-0.703125 Z m 0,0"
               id="id-829efaaa-f57d-4c97-a6b0-ee1b2dbe0da2" />
          </g>
          <g
             id="id-c48f3bab-c510-4648-9060-d11ef5d57844">
            <path
               d="M 2.78125,-0.84375 C 2.75,-0.71875 2.75,-0.703125 2.640625,-0.609375 c -0.15625,0.15625 -0.46875,0.34375 -0.828125,0.34375 -0.3125,0 -0.546875,-0.171875 -0.546875,-0.546875 0,-0.265625 0.1875,-1.09375 0.375,-1.453125 0.203125,-0.375 0.546875,-0.5625 0.875,-0.5625 0.515625,0 0.65625,0.375 0.65625,0.421875 0,0.015625 -0.015625,0.0625 -0.015625,0.09375 z M 3.359375,-2.859375 C 3.234375,-2.96875 2.96875,-3.15625 2.515625,-3.15625 c -1.34375,0 -2.109375,1.09375 -2.109375,2.015625 0,0.84375 0.65625,1.203125 1.375,1.203125 0.546875,0 0.921875,-0.25 1.0625,-0.375 0.15625,0.21875 0.515625,0.375 0.890625,0.375 0.75,0 0.984375,-1.046875 0.984375,-1.09375 0,-0.125 -0.125,-0.125 -0.21875,-0.125 -0.171875,0 -0.1875,0 -0.234375,0.15625 C 4.1875,-0.6875 4.0625,-0.265625 3.78125,-0.265625 c -0.171875,0 -0.1875,-0.171875 -0.1875,-0.28125 0,-0.09375 0.078125,-0.421875 0.140625,-0.625 L 4,-2.265625 c 0.046875,-0.140625 0.09375,-0.375 0.09375,-0.421875 0,-0.21875 -0.15625,-0.34375 -0.359375,-0.34375 -0.21875,0 -0.375,0.15625 -0.375,0.171875 z m 0,0"
               id="id-71452f9a-84d3-4580-b74b-1a65a92651a2" />
          </g>
          <g
             id="id-70156c5d-4665-4528-a67c-7a58190ef50f">
            <path
               d="m 1.03125,-0.90625 c -0.046875,0.203125 -0.125,0.5625 -0.125,0.609375 0,0.25 0.1875,0.359375 0.359375,0.359375 0.15625,0 0.421875,-0.109375 0.5,-0.40625 0.03125,-0.09375 0.25,-1.015625 0.296875,-1.203125 0.015625,-0.0625 0.0625,-0.234375 0.078125,-0.296875 0.015625,-0.09375 0.046875,-0.203125 0.0625,-0.296875 0.03125,-0.0625 0.234375,-0.34375 0.390625,-0.46875 0.09375,-0.0625 0.296875,-0.21875 0.609375,-0.21875 0.109375,0 0.21875,0.03125 0.296875,0.109375 -0.328125,0.09375 -0.40625,0.390625 -0.40625,0.53125 0,0.21875 0.171875,0.359375 0.390625,0.359375 0.25,0 0.5625,-0.1875 0.5625,-0.625 0,-0.390625 -0.328125,-0.703125 -0.828125,-0.703125 -0.34375,0 -0.6875,0.140625 -1,0.453125 C 2.046875,-3.0625 1.5625,-3.15625 1.28125,-3.15625 c -0.734375,0 -0.96875,1.046875 -0.96875,1.09375 0,0.125 0.109375,0.125 0.21875,0.125 0.171875,0 0.1875,0 0.21875,-0.15625 0.09375,-0.296875 0.21875,-0.734375 0.484375,-0.734375 0.171875,0 0.1875,0.1875 0.1875,0.28125 0,0.09375 -0.015625,0.171875 -0.0625,0.390625 C 1.28125,-1.890625 1.28125,-1.875 1.21875,-1.609375 Z m 0,0"
               id="id-a8fb7498-230a-41a7-bf4c-f283272576d1" />
          </g>
        </g>
      </defs>
      <g
         fill="#000000"
         fill-opacity="1"
         id="id-0e29784c-495d-450c-9448-53b3be446967"
         transform="translate(-149.79,-127.281)">
        <g
           transform="translate(148.712,134.765)"
           id="g1241">
          <path
             d="M 3.78125,2.25 C 3.484375,1.96875 2.84375,1.359375 2.421875,0.09375 2.15625,-0.703125 2.046875,-1.609375 2.046875,-2.5 c 0,-1.953125 0.5,-3.515625 1.609375,-4.625 0.140625,-0.15625 0.15625,-0.15625 0.15625,-0.21875 0,-0.109375 -0.109375,-0.140625 -0.1875,-0.140625 -0.171875,0 -0.578125,0.375 -0.765625,0.546875 -1.546875,1.546875 -1.78125,3.375 -1.78125,4.4375 0,1.25 0.328125,2.34375 0.796875,3.171875 0.65625,1.140625 1.5625,1.8125 1.75,1.8125 0.078125,0 0.1875,-0.03125 0.1875,-0.140625 C 3.8125,2.296875 3.78125,2.25 3.78125,2.25 Z m 0,0"
             id="id-089c833c-0210-4aa1-aef9-267d305030cc" />
        </g>
      </g>
      <g
         fill="#000000"
         fill-opacity="1"
         id="id-152d44d9-a52c-4fca-a50a-4ca1ee24068b"
         transform="translate(-149.79,-127.281)">
        <g
           transform="translate(153.168,134.765)"
           id="g1245">
          <path
             d="M 2.828125,-6.5625 C 2.875,-6.703125 2.875,-6.734375 2.875,-6.734375 c 0,-0.140625 -0.109375,-0.1875 -0.21875,-0.1875 -0.046875,0 -0.046875,0 -0.078125,0.015625 l -1.28125,0.0625 c -0.140625,0 -0.3125,0.015625 -0.3125,0.296875 0,0.171875 0.1875,0.171875 0.25,0.171875 0.109375,0 0.296875,0 0.421875,0.03125 L 0.375,-1.234375 C 0.34375,-1.125 0.328125,-1.03125 0.328125,-0.890625 c 0,0.65625 0.65625,0.96875 1.25,0.96875 0.359375,0 0.640625,-0.203125 0.859375,-0.5625 0.25,-0.390625 0.390625,-0.9375 0.390625,-0.984375 0,-0.140625 -0.15625,-0.140625 -0.25,-0.140625 -0.109375,0 -0.140625,0 -0.203125,0.046875 -0.015625,0.015625 -0.015625,0.03125 -0.078125,0.28125 -0.1875,0.765625 -0.40625,1 -0.671875,1 -0.15625,0 -0.234375,-0.09375 -0.234375,-0.359375 0,-0.203125 0.03125,-0.296875 0.0625,-0.4375 z m 0,0"
             id="id-baaf988b-5997-4a39-b87d-73506e7567ab" />
        </g>
      </g>
      <g
         fill="#000000"
         fill-opacity="1"
         id="id-0a07a866-a76c-42a4-8890-14f92a284226"
         transform="translate(-149.79,-127.281)">
        <g
           transform="translate(156.726,134.765)"
           id="g1249">
          <path
             d="M 2.140625,-0.203125 C 2.109375,0.421875 1.796875,1.09375 1.25,1.5625 1.109375,1.671875 1.109375,1.6875 1.109375,1.75 c 0,0.0625 0.109375,0.1875 0.1875,0.1875 C 1.4375,1.9375 2.5,1.0625 2.5,-0.3125 2.5,-1 2.140625,-1.5625 1.578125,-1.5625 1.109375,-1.5625 0.8125,-1.203125 0.8125,-0.78125 0.8125,-0.375 1.09375,0 1.578125,0 c 0.25,0 0.4375,-0.09375 0.5625,-0.203125 z m 0,0"
             id="id-d215a41b-25f1-436d-919e-fff9042ecf9d" />
        </g>
      </g>
      <g
         fill="#000000"
         fill-opacity="1"
         id="id-ef8588b5-3055-470d-a699-9a5d41b8d943"
         transform="translate(-149.79,-127.281)">
        <g
           transform="translate(161.821,134.765)"
           id="g1253">
          <path
             d="M 2.515625,-3.953125 H 3.40625 c 0.1875,0 0.21875,0 0.265625,-0.046875 0.0625,-0.046875 0.09375,-0.1875 0.09375,-0.25 0,-0.171875 -0.171875,-0.171875 -0.34375,-0.171875 H 2.625 L 2.953125,-5.71875 c 0.03125,-0.15625 0.03125,-0.21875 0.03125,-0.25 0,-0.328125 -0.25,-0.4375 -0.46875,-0.4375 -0.140625,0 -0.40625,0.0625 -0.578125,0.34375 C 1.90625,-5.984375 1.78125,-5.515625 1.71875,-5.25 L 1.515625,-4.421875 H 0.625 c -0.203125,0 -0.375,0 -0.375,0.28125 0,0.1875 0.15625,0.1875 0.34375,0.1875 H 1.390625 L 0.828125,-1.6875 C 0.75,-1.421875 0.65625,-1 0.65625,-0.890625 c 0,0.640625 0.640625,0.96875 1.25,0.96875 1.1875,0 1.875,-1.390625 1.875,-1.546875 0,-0.140625 -0.15625,-0.140625 -0.25,-0.140625 -0.15625,0 -0.171875,0 -0.234375,0.15625 -0.390625,0.859375 -0.9375,1.171875 -1.328125,1.171875 -0.09375,0 -0.25,0 -0.25,-0.359375 0,-0.203125 0.03125,-0.3125 0.0625,-0.4375 z m 0,0"
             id="id-d12ebda7-12d1-438b-95d6-c7080dd27c63" />
        </g>
        <g
           transform="translate(165.958,134.765)"
           id="g1256">
          <path
             d="M 2.140625,-0.203125 C 2.109375,0.421875 1.796875,1.09375 1.25,1.5625 1.109375,1.671875 1.109375,1.6875 1.109375,1.75 c 0,0.0625 0.109375,0.1875 0.1875,0.1875 C 1.4375,1.9375 2.5,1.0625 2.5,-0.3125 2.5,-1 2.140625,-1.5625 1.578125,-1.5625 1.109375,-1.5625 0.8125,-1.203125 0.8125,-0.78125 0.8125,-0.375 1.09375,0 1.578125,0 c 0.25,0 0.4375,-0.09375 0.5625,-0.203125 z m 0,0"
             id="id-fbb7a061-154c-4425-9f63-08e0f0225258" />
        </g>
      </g>
      <g
         fill="#000000"
         fill-opacity="1"
         id="id-41e73838-b350-4cc6-9ff4-72ea9e96ed04"
         transform="translate(-149.79,-127.281)">
        <g
           transform="translate(171.045,134.765)"
           id="g1260">
          <path
             d="m 7.5,-2.1875 c 0.140625,0 0.4375,0 0.4375,-0.3125 0,-0.296875 -0.28125,-0.296875 -0.4375,-0.296875 H 1.40625 c -0.15625,0 -0.453125,0 -0.453125,0.296875 0,0.3125 0.296875,0.3125 0.453125,0.3125 z m 0,0"
             id="id-31b937ed-fb95-402e-9522-347849626a7a" />
        </g>
      </g>
      <g
         fill="#000000"
         fill-opacity="1"
         id="id-81c54bdb-3989-47e9-a64e-fb4bf705b4b0"
         transform="translate(-149.79,-127.281)">
        <g
           transform="translate(179.956,134.765)"
           id="g1264">
          <path
             d="m 2.40625,-3.40625 c 0.140625,0 0.265625,0 0.40625,0 0.390625,-0.015625 0.890625,-0.046875 1.28125,-0.0625 -0.28125,0.265625 -0.4375,0.421875 -1.4375,1.1875 -2.015625,1.53125 -2.234375,2.1875 -2.234375,2.21875 0,0.140625 0.140625,0.140625 0.21875,0.140625 0.171875,0 0.171875,-0.015625 0.25,-0.109375 0.359375,-0.5 0.71875,-0.5625 0.890625,-0.5625 0.265625,0 0.484375,0.171875 0.640625,0.28125 0.3125,0.21875 0.5625,0.390625 0.9375,0.390625 1.109375,0 1.84375,-1.21875 1.84375,-1.59375 0,-0.140625 -0.171875,-0.140625 -0.234375,-0.140625 -0.078125,0 -0.1875,0 -0.21875,0.09375 -0.078125,0.1875 -0.1875,0.4375 -0.859375,0.515625 -0.046875,0.015625 -2,0.09375 -2.21875,0.09375 0.28125,-0.265625 0.4375,-0.421875 1.453125,-1.1875 2.015625,-1.53125 2.234375,-2.1875 2.234375,-2.21875 C 5.359375,-4.5 5.21875,-4.5 5.140625,-4.5 c -0.15625,0 -0.171875,0 -0.234375,0.09375 -0.234375,0.34375 -0.4375,0.578125 -0.671875,0.578125 -0.25,0 -0.46875,-0.15625 -0.703125,-0.3125 C 3.296875,-4.328125 3.046875,-4.5 2.671875,-4.5 c -0.875,0 -1.453125,0.875 -1.453125,1.1875 0,0.140625 0.171875,0.140625 0.25,0.140625 0.09375,0 0.203125,0 0.21875,-0.125 C 1.828125,-3.375 1.90625,-3.375 2.203125,-3.40625 Z m 0,0"
             id="id-c608a03b-569e-4109-b2aa-6d92a417560e" />
        </g>
      </g>
      <g
         fill="#000000"
         fill-opacity="1"
         id="id-0b237b52-dca3-44af-aef2-c2b50e1820ab"
         transform="translate(-149.79,-127.281)">
        <g
           transform="translate(185.486,136.259)"
           id="g1268">
          <path
             d="m 3.265625,-2.703125 h 0.90625 c 0.125,0 0.28125,0 0.28125,-0.234375 0,-0.15625 -0.15625,-0.15625 -0.265625,-0.15625 H 3.328125 c 0.09375,-0.515625 0.203125,-1.21875 0.234375,-1.3125 0,-0.015625 0.09375,-0.171875 0.28125,-0.171875 0.0625,0 0.203125,0.03125 0.203125,0.046875 0,0 -0.03125,0.015625 -0.046875,0.046875 C 3.875,-4.375 3.8125,-4.1875 3.8125,-4.09375 c 0,0.234375 0.171875,0.375 0.390625,0.375 0.265625,0 0.546875,-0.234375 0.546875,-0.578125 0,-0.40625 -0.421875,-0.59375 -0.90625,-0.59375 -0.46875,0 -0.828125,0.1875 -1.03125,0.5 C 2.640625,-4.125 2.578125,-3.875 2.46875,-3.09375 H 1.703125 c -0.125,0 -0.15625,0 -0.203125,0.046875 -0.046875,0.03125 -0.078125,0.140625 -0.078125,0.1875 0,0.15625 0.15625,0.15625 0.265625,0.15625 H 2.390625 C 2.390625,-2.65625 2,-0.3125 1.859375,0.375 c -0.0625,0.34375 -0.078125,0.390625 -0.1875,0.546875 -0.078125,0.125 -0.15625,0.171875 -0.25,0.171875 -0.0625,0 -0.1875,-0.015625 -0.1875,-0.046875 0,0 0.03125,-0.015625 0.046875,-0.046875 0.140625,-0.109375 0.1875,-0.296875 0.1875,-0.390625 0,-0.234375 -0.171875,-0.375 -0.390625,-0.375 -0.265625,0 -0.546875,0.234375 -0.546875,0.578125 0,0.40625 0.453125,0.59375 0.875,0.59375 0.46875,0 0.875,-0.359375 1.078125,-0.6875 C 2.75,0.296875 2.90625,-0.640625 2.921875,-0.703125 Z m 0,0"
             id="id-e774c9b9-be5a-4357-a9d4-e93b71b35d9e" />
        </g>
      </g>
      <g
         fill="#000000"
         fill-opacity="1"
         id="id-748d563d-f237-43b4-9f25-ac8e918b46d8"
         transform="translate(-149.79,-127.281)">
        <g
           transform="translate(190.7,136.259)"
           id="g1272">
          <path
             d="M 2.78125,-0.84375 C 2.75,-0.71875 2.75,-0.703125 2.640625,-0.609375 c -0.15625,0.15625 -0.46875,0.34375 -0.828125,0.34375 -0.3125,0 -0.546875,-0.171875 -0.546875,-0.546875 0,-0.265625 0.1875,-1.09375 0.375,-1.453125 0.203125,-0.375 0.546875,-0.5625 0.875,-0.5625 0.515625,0 0.65625,0.375 0.65625,0.421875 0,0.015625 -0.015625,0.0625 -0.015625,0.09375 z M 3.359375,-2.859375 C 3.234375,-2.96875 2.96875,-3.15625 2.515625,-3.15625 c -1.34375,0 -2.109375,1.09375 -2.109375,2.015625 0,0.84375 0.65625,1.203125 1.375,1.203125 0.546875,0 0.921875,-0.25 1.0625,-0.375 0.15625,0.21875 0.515625,0.375 0.890625,0.375 0.75,0 0.984375,-1.046875 0.984375,-1.09375 0,-0.125 -0.125,-0.125 -0.21875,-0.125 -0.171875,0 -0.1875,0 -0.234375,0.15625 C 4.1875,-0.6875 4.0625,-0.265625 3.78125,-0.265625 c -0.171875,0 -0.1875,-0.171875 -0.1875,-0.28125 0,-0.09375 0.078125,-0.421875 0.140625,-0.625 L 4,-2.265625 c 0.046875,-0.140625 0.09375,-0.375 0.09375,-0.421875 0,-0.21875 -0.15625,-0.34375 -0.359375,-0.34375 -0.21875,0 -0.375,0.15625 -0.375,0.171875 z m 0,0"
             id="id-acb8cab9-cab9-459d-a04e-4c5816a7991a" />
        </g>
        <g
           transform="translate(195.736,136.259)"
           id="g1275">
          <path
             d="m 1.03125,-0.90625 c -0.046875,0.203125 -0.125,0.5625 -0.125,0.609375 0,0.25 0.1875,0.359375 0.359375,0.359375 0.15625,0 0.421875,-0.109375 0.5,-0.40625 0.03125,-0.09375 0.25,-1.015625 0.296875,-1.203125 0.015625,-0.0625 0.0625,-0.234375 0.078125,-0.296875 0.015625,-0.09375 0.046875,-0.203125 0.0625,-0.296875 0.03125,-0.0625 0.234375,-0.34375 0.390625,-0.46875 0.09375,-0.0625 0.296875,-0.21875 0.609375,-0.21875 0.109375,0 0.21875,0.03125 0.296875,0.109375 -0.328125,0.09375 -0.40625,0.390625 -0.40625,0.53125 0,0.21875 0.171875,0.359375 0.390625,0.359375 0.25,0 0.5625,-0.1875 0.5625,-0.625 0,-0.390625 -0.328125,-0.703125 -0.828125,-0.703125 -0.34375,0 -0.6875,0.140625 -1,0.453125 C 2.046875,-3.0625 1.5625,-3.15625 1.28125,-3.15625 c -0.734375,0 -0.96875,1.046875 -0.96875,1.09375 0,0.125 0.109375,0.125 0.21875,0.125 0.171875,0 0.1875,0 0.21875,-0.15625 0.09375,-0.296875 0.21875,-0.734375 0.484375,-0.734375 0.171875,0 0.1875,0.1875 0.1875,0.28125 0,0.09375 -0.015625,0.171875 -0.0625,0.390625 C 1.28125,-1.890625 1.28125,-1.875 1.21875,-1.609375 Z m 0,0"
             id="id-b3047978-07cc-41fe-a037-dbc95fe495ea" />
        </g>
      </g>
      <g
         fill="#000000"
         fill-opacity="1"
         id="id-edf0b2d1-4cea-4549-863e-c30bf1ae2f47"
         transform="translate(-149.79,-127.281)">
        <g
           transform="translate(200.705,134.765)"
           id="g1279">
          <path
             d="M 3.375,-2.5 C 3.375,-3.734375 3.046875,-4.828125 2.578125,-5.65625 1.90625,-6.8125 1,-7.484375 0.8125,-7.484375 c -0.078125,0 -0.171875,0.03125 -0.171875,0.140625 0,0.0625 0,0.078125 0.171875,0.234375 1.25,1.28125 1.59375,3.046875 1.59375,4.609375 0,1.96875 -0.515625,3.53125 -1.609375,4.640625 -0.15625,0.140625 -0.15625,0.15625 -0.15625,0.203125 0,0.109375 0.09375,0.140625 0.171875,0.140625 0.171875,0 0.59375,-0.375 0.765625,-0.546875 C 3.140625,0.40625 3.375,-1.4375 3.375,-2.5 Z m 0,0"
             id="id-6517801d-c7eb-4ecb-8aaa-bd8ea163cca8" />
        </g>
      </g>
    </g>
    <g
       transform="matrix(0.352778,0,0,0.352778,44.560548,38.932468)"
       ns11:version="1.8.2"
       ns11:texconverter="pdflatex"
       ns11:pdfconverter="inkscape"
       ns11:text="$\\boldsymbol{(r,b,-z_{near})}$"
       ns11:preamble="C:\Users\Yune\AppData\Roaming\inkscape\extensions\textext\default_packages.tex"
       ns11:scale="1.0"
       ns11:alignment="middle center"
       ns11:stroke-to-path="0"
       ns11:inkscapeversion="1.2.2"
       ns11:jacobian_sqrt="0.352778"
       id="g586">
      <defs
         id="id-a27850c7-959c-469b-84c3-48a2513ef195">
        <g
           id="id-0d4c9ec7-1e7b-4c8a-8b05-d954a3032df8">
          <g
             id="id-05ab5bf0-73ed-49f8-ac0c-60ea8dec5cfe" />
          <g
             id="id-b075a203-7ebd-4a35-8719-66a53624072e">
            <path
               d="M 3.78125,2.25 C 3.484375,1.96875 2.84375,1.359375 2.421875,0.09375 2.15625,-0.703125 2.046875,-1.609375 2.046875,-2.5 c 0,-1.953125 0.5,-3.515625 1.609375,-4.625 0.140625,-0.15625 0.15625,-0.15625 0.15625,-0.21875 0,-0.109375 -0.109375,-0.140625 -0.1875,-0.140625 -0.171875,0 -0.578125,0.375 -0.765625,0.546875 -1.546875,1.546875 -1.78125,3.375 -1.78125,4.4375 0,1.25 0.328125,2.34375 0.796875,3.171875 0.65625,1.140625 1.5625,1.8125 1.75,1.8125 0.078125,0 0.1875,-0.03125 0.1875,-0.140625 C 3.8125,2.296875 3.78125,2.25 3.78125,2.25 Z m 0,0"
               id="id-2c3a5899-6000-485a-bced-bc0ec523a860" />
          </g>
          <g
             id="id-13ca88ce-92b3-4c68-8e4e-c5d5115b1c11">
            <path
               d="M 3.375,-2.5 C 3.375,-3.734375 3.046875,-4.828125 2.578125,-5.65625 1.90625,-6.8125 1,-7.484375 0.8125,-7.484375 c -0.078125,0 -0.171875,0.03125 -0.171875,0.140625 0,0.0625 0,0.078125 0.171875,0.234375 1.25,1.28125 1.59375,3.046875 1.59375,4.609375 0,1.96875 -0.515625,3.53125 -1.609375,4.640625 -0.15625,0.140625 -0.15625,0.15625 -0.15625,0.203125 0,0.109375 0.09375,0.140625 0.171875,0.140625 0.171875,0 0.59375,-0.375 0.765625,-0.546875 C 3.140625,0.40625 3.375,-1.4375 3.375,-2.5 Z m 0,0"
               id="id-23d9308f-2595-440c-a326-07f49e685283" />
          </g>
          <g
             id="id-2cb2f9cd-a97b-4bec-935d-6799c08b7a91" />
          <g
             id="id-adec6649-a1af-4dba-a2a1-d684a6653c8c">
            <path
               d="M 4.421875,-4 C 3.875,-3.890625 3.8125,-3.40625 3.8125,-3.3125 c 0,0.21875 0.171875,0.46875 0.5,0.46875 0.34375,0 0.71875,-0.28125 0.71875,-0.796875 C 5.03125,-4.09375 4.671875,-4.5 4.0625,-4.5 3.5,-4.5 3.03125,-4.234375 2.734375,-3.90625 2.5,-4.359375 1.921875,-4.5 1.5625,-4.5 c -0.359375,0 -0.640625,0.203125 -0.859375,0.5625 -0.25,0.390625 -0.390625,0.921875 -0.390625,0.984375 0,0.140625 0.15625,0.140625 0.25,0.140625 0.109375,0 0.140625,0 0.1875,-0.046875 C 0.78125,-2.875 0.78125,-2.90625 0.84375,-3.15625 c 0.1875,-0.75 0.40625,-0.984375 0.671875,-0.984375 0.15625,0 0.234375,0.09375 0.234375,0.359375 0,0.171875 -0.03125,0.28125 -0.140625,0.75 -0.046875,0.171875 -0.21875,0.828125 -0.28125,1.078125 -0.046875,0.1875 -0.15625,0.640625 -0.203125,0.8125 -0.0625,0.265625 -0.171875,0.71875 -0.171875,0.78125 0,0.203125 0.15625,0.4375 0.46875,0.4375 0.1875,0 0.546875,-0.125 0.65625,-0.53125 0,-0.03125 0.6875,-2.734375 0.6875,-2.796875 C 2.8125,-3.40625 2.8125,-3.421875 2.9375,-3.5625 c 0.234375,-0.296875 0.59375,-0.578125 1.09375,-0.578125 0.25,0 0.359375,0.109375 0.390625,0.140625 z m 0,0"
               id="id-58398355-6d50-49a3-b285-beb4cd047ab1" />
          </g>
          <g
             id="id-4e9931ad-787e-412d-b473-edab0557da8c">
            <path
               d="M 2.140625,-0.203125 C 2.109375,0.421875 1.796875,1.09375 1.25,1.5625 1.109375,1.671875 1.109375,1.6875 1.109375,1.75 c 0,0.0625 0.109375,0.1875 0.1875,0.1875 C 1.4375,1.9375 2.5,1.0625 2.5,-0.3125 2.5,-1 2.140625,-1.5625 1.578125,-1.5625 1.109375,-1.5625 0.8125,-1.203125 0.8125,-0.78125 0.8125,-0.375 1.09375,0 1.578125,0 c 0.25,0 0.4375,-0.09375 0.5625,-0.203125 z m 0,0"
               id="id-433dc720-f64a-4a2a-8950-2306b903fbf9" />
          </g>
          <g
             id="id-98bd4c86-16c1-488f-9288-1b3683380bc7">
            <path
               d="M 2.796875,-6.5625 C 2.84375,-6.703125 2.84375,-6.734375 2.84375,-6.734375 c 0,-0.140625 -0.109375,-0.1875 -0.21875,-0.1875 -0.046875,0 -0.046875,0 -0.078125,0.015625 l -1.28125,0.0625 c -0.140625,0 -0.3125,0.015625 -0.3125,0.296875 0,0.171875 0.1875,0.171875 0.25,0.171875 0.109375,0 0.296875,0 0.421875,0.03125 -0.078125,0.328125 -0.171875,0.765625 -0.28125,1.140625 l -0.6875,2.75 c -0.140625,0.5625 -0.140625,0.671875 -0.140625,0.90625 0,1.28125 0.953125,1.625 1.703125,1.625 1.796875,0 2.828125,-1.625 2.828125,-2.9375 C 5.046875,-4.09375 4.125,-4.5 3.296875,-4.5 c -0.46875,0 -0.875,0.1875 -1.078125,0.3125 z m -0.5625,6.28125 c -0.390625,0 -0.71875,-0.203125 -0.71875,-0.828125 0,-0.3125 0.09375,-0.6875 0.171875,-1 0.09375,-0.375 0.265625,-1.0625 0.34375,-1.359375 0.046875,-0.171875 0.609375,-0.671875 1.21875,-0.671875 0.625,0 0.671875,0.53125 0.671875,0.75 0,0.515625 -0.34375,1.75 -0.5,2.140625 -0.34375,0.796875 -0.90625,0.96875 -1.1875,0.96875 z m 0,0"
               id="id-29473c95-0964-4fd0-90c7-2c0ac9103efc" />
          </g>
          <g
             id="id-b907b2be-3df5-40a5-a3f2-5d1b6cac2470">
            <path
               d="m 2.40625,-3.40625 c 0.140625,0 0.265625,0 0.40625,0 0.390625,-0.015625 0.890625,-0.046875 1.28125,-0.0625 -0.28125,0.265625 -0.4375,0.421875 -1.4375,1.1875 -2.015625,1.53125 -2.234375,2.1875 -2.234375,2.21875 0,0.140625 0.140625,0.140625 0.21875,0.140625 0.171875,0 0.171875,-0.015625 0.25,-0.109375 0.359375,-0.5 0.71875,-0.5625 0.890625,-0.5625 0.265625,0 0.484375,0.171875 0.640625,0.28125 0.3125,0.21875 0.5625,0.390625 0.9375,0.390625 1.109375,0 1.84375,-1.21875 1.84375,-1.59375 0,-0.140625 -0.171875,-0.140625 -0.234375,-0.140625 -0.078125,0 -0.1875,0 -0.21875,0.09375 -0.078125,0.1875 -0.1875,0.4375 -0.859375,0.515625 -0.046875,0.015625 -2,0.09375 -2.21875,0.09375 0.28125,-0.265625 0.4375,-0.421875 1.453125,-1.1875 2.015625,-1.53125 2.234375,-2.1875 2.234375,-2.21875 C 5.359375,-4.5 5.21875,-4.5 5.140625,-4.5 c -0.15625,0 -0.171875,0 -0.234375,0.09375 -0.234375,0.34375 -0.4375,0.578125 -0.671875,0.578125 -0.25,0 -0.46875,-0.15625 -0.703125,-0.3125 C 3.296875,-4.328125 3.046875,-4.5 2.671875,-4.5 c -0.875,0 -1.453125,0.875 -1.453125,1.1875 0,0.140625 0.171875,0.140625 0.25,0.140625 0.09375,0 0.203125,0 0.21875,-0.125 C 1.828125,-3.375 1.90625,-3.375 2.203125,-3.40625 Z m 0,0"
               id="id-7c323587-fad6-419d-9761-02825906c025" />
          </g>
          <g
             id="id-a3479281-7695-45f6-ae95-9d95e62ead32" />
          <g
             id="id-c658cd33-f56c-4318-abf0-0728ef45fdfb">
            <path
               d="m 7.5,-2.1875 c 0.140625,0 0.4375,0 0.4375,-0.3125 0,-0.296875 -0.28125,-0.296875 -0.4375,-0.296875 H 1.40625 c -0.15625,0 -0.453125,0 -0.453125,0.296875 0,0.3125 0.296875,0.3125 0.453125,0.3125 z m 0,0"
               id="id-7834834d-63d9-434a-b67d-b4eee0e5e662" />
          </g>
          <g
             id="id-858bdf82-4380-4970-b4ce-d7cc6c93ab9b" />
          <g
             id="id-bbbef393-b491-4f3e-8e3c-cef13349baf5">
            <path
               d="m 1.03125,-0.90625 c -0.046875,0.203125 -0.125,0.5625 -0.125,0.609375 0,0.25 0.1875,0.359375 0.359375,0.359375 C 1.65625,0.0625 1.75,-0.296875 1.8125,-0.5 1.90625,-0.90625 1.90625,-0.921875 2,-1.3125 2.109375,-1.71875 2.109375,-1.734375 2.125,-1.796875 2.171875,-2 2.46875,-2.34375 2.65625,-2.515625 c 0.125,-0.109375 0.421875,-0.3125 0.796875,-0.3125 0.328125,0 0.390625,0.1875 0.390625,0.40625 0,0.390625 -0.3125,1.171875 -0.421875,1.453125 C 3.328125,-0.75 3.3125,-0.6875 3.3125,-0.578125 c 0,0.40625 0.453125,0.640625 0.890625,0.640625 0.796875,0 1.21875,-0.890625 1.21875,-1.09375 0,-0.125 -0.125,-0.125 -0.21875,-0.125 -0.171875,0 -0.1875,0.015625 -0.234375,0.15625 -0.125,0.390625 -0.421875,0.734375 -0.71875,0.734375 -0.046875,0 -0.125,0 -0.125,-0.171875 0,-0.125 0.046875,-0.203125 0.171875,-0.53125 0.0625,-0.140625 0.390625,-0.953125 0.390625,-1.328125 0,-0.859375 -0.96875,-0.859375 -1.171875,-0.859375 -0.171875,0 -0.703125,0 -1.265625,0.5625 -0.15625,-0.5625 -0.90625,-0.5625 -0.96875,-0.5625 -0.734375,0 -0.96875,1.03125 -0.96875,1.09375 0,0.125 0.109375,0.125 0.21875,0.125 0.171875,0 0.1875,0 0.21875,-0.15625 0.09375,-0.296875 0.21875,-0.734375 0.484375,-0.734375 0.171875,0 0.1875,0.171875 0.1875,0.28125 0,0.09375 -0.015625,0.171875 -0.0625,0.390625 C 1.28125,-1.890625 1.28125,-1.875 1.21875,-1.609375 Z m 0,0"
               id="id-9d0ab91f-d366-4a73-8e66-89bac8b1f7c7" />
          </g>
          <g
             id="id-4def19cc-b5f7-444f-a139-395af5d4c56c">
            <path
               d="m 1.71875,-1.4375 c 0.484375,0 0.984375,-0.046875 1.3125,-0.140625 C 3.546875,-1.71875 3.859375,-2 3.859375,-2.4375 c 0,-0.4375 -0.4375,-0.71875 -1.09375,-0.71875 -1.453125,0 -2.34375,0.9375 -2.34375,1.9375 0,1.28125 1.390625,1.28125 1.734375,1.28125 0.390625,0 0.734375,-0.015625 1.09375,-0.125 0.40625,-0.09375 0.765625,-0.375 0.765625,-0.5 0,-0.078125 -0.15625,-0.234375 -0.234375,-0.234375 -0.046875,0 -0.078125,0.015625 -0.125,0.0625 -0.171875,0.171875 -0.5,0.46875 -1.53125,0.46875 -0.21875,0 -0.828125,0 -0.828125,-0.671875 0,-0.140625 0.046875,-0.34375 0.078125,-0.5 z M 1.453125,-1.765625 C 1.53125,-2 1.765625,-2.828125 2.75,-2.828125 c 0.34375,0 0.59375,0.15625 0.59375,0.390625 0,0.671875 -1.15625,0.671875 -1.890625,0.671875 z m 0,0"
               id="id-af9ab95d-fe92-4baa-9e97-f01c29aa5d1c" />
          </g>
          <g
             id="id-db518463-7531-4bfe-b6fc-5f6ba5000a4a">
            <path
               d="M 2.78125,-0.84375 C 2.75,-0.71875 2.75,-0.703125 2.640625,-0.609375 c -0.15625,0.15625 -0.46875,0.34375 -0.828125,0.34375 -0.3125,0 -0.546875,-0.171875 -0.546875,-0.546875 0,-0.265625 0.1875,-1.09375 0.375,-1.453125 0.203125,-0.375 0.546875,-0.5625 0.875,-0.5625 0.515625,0 0.65625,0.375 0.65625,0.421875 0,0.015625 -0.015625,0.0625 -0.015625,0.09375 z M 3.359375,-2.859375 C 3.234375,-2.96875 2.96875,-3.15625 2.515625,-3.15625 c -1.34375,0 -2.109375,1.09375 -2.109375,2.015625 0,0.84375 0.65625,1.203125 1.375,1.203125 0.546875,0 0.921875,-0.25 1.0625,-0.375 0.15625,0.21875 0.515625,0.375 0.890625,0.375 0.75,0 0.984375,-1.046875 0.984375,-1.09375 0,-0.125 -0.125,-0.125 -0.21875,-0.125 -0.171875,0 -0.1875,0 -0.234375,0.15625 C 4.1875,-0.6875 4.0625,-0.265625 3.78125,-0.265625 c -0.171875,0 -0.1875,-0.171875 -0.1875,-0.28125 0,-0.09375 0.078125,-0.421875 0.140625,-0.625 L 4,-2.265625 c 0.046875,-0.140625 0.09375,-0.375 0.09375,-0.421875 0,-0.21875 -0.15625,-0.34375 -0.359375,-0.34375 -0.21875,0 -0.375,0.15625 -0.375,0.171875 z m 0,0"
               id="id-d80bb556-8be3-451b-9267-4e3c4e3a0819" />
          </g>
          <g
             id="id-a25287e6-4624-428b-b2a0-625f30a7cdd5">
            <path
               d="m 1.03125,-0.90625 c -0.046875,0.203125 -0.125,0.5625 -0.125,0.609375 0,0.25 0.1875,0.359375 0.359375,0.359375 0.15625,0 0.421875,-0.109375 0.5,-0.40625 0.03125,-0.09375 0.25,-1.015625 0.296875,-1.203125 0.015625,-0.0625 0.0625,-0.234375 0.078125,-0.296875 0.015625,-0.09375 0.046875,-0.203125 0.0625,-0.296875 0.03125,-0.0625 0.234375,-0.34375 0.390625,-0.46875 0.09375,-0.0625 0.296875,-0.21875 0.609375,-0.21875 0.109375,0 0.21875,0.03125 0.296875,0.109375 -0.328125,0.09375 -0.40625,0.390625 -0.40625,0.53125 0,0.21875 0.171875,0.359375 0.390625,0.359375 0.25,0 0.5625,-0.1875 0.5625,-0.625 0,-0.390625 -0.328125,-0.703125 -0.828125,-0.703125 -0.34375,0 -0.6875,0.140625 -1,0.453125 C 2.046875,-3.0625 1.5625,-3.15625 1.28125,-3.15625 c -0.734375,0 -0.96875,1.046875 -0.96875,1.09375 0,0.125 0.109375,0.125 0.21875,0.125 0.171875,0 0.1875,0 0.21875,-0.15625 0.09375,-0.296875 0.21875,-0.734375 0.484375,-0.734375 0.171875,0 0.1875,0.1875 0.1875,0.28125 0,0.09375 -0.015625,0.171875 -0.0625,0.390625 C 1.28125,-1.890625 1.28125,-1.875 1.21875,-1.609375 Z m 0,0"
               id="id-90d860de-e1d9-4860-a8c4-6fdd94c540c2" />
          </g>
        </g>
      </defs>
      <g
         fill="#000000"
         fill-opacity="1"
         id="id-7c72af82-2a9d-4c3a-a7e3-9645dbf7849c"
         transform="translate(-149.79,-127.281)">
        <g
           transform="translate(148.712,134.765)"
           id="g1726">
          <path
             d="M 3.78125,2.25 C 3.484375,1.96875 2.84375,1.359375 2.421875,0.09375 2.15625,-0.703125 2.046875,-1.609375 2.046875,-2.5 c 0,-1.953125 0.5,-3.515625 1.609375,-4.625 0.140625,-0.15625 0.15625,-0.15625 0.15625,-0.21875 0,-0.109375 -0.109375,-0.140625 -0.1875,-0.140625 -0.171875,0 -0.578125,0.375 -0.765625,0.546875 -1.546875,1.546875 -1.78125,3.375 -1.78125,4.4375 0,1.25 0.328125,2.34375 0.796875,3.171875 0.65625,1.140625 1.5625,1.8125 1.75,1.8125 0.078125,0 0.1875,-0.03125 0.1875,-0.140625 C 3.8125,2.296875 3.78125,2.25 3.78125,2.25 Z m 0,0"
             id="id-f977ab55-cda3-4669-b62f-209ff4900ec8" />
        </g>
      </g>
      <g
         fill="#000000"
         fill-opacity="1"
         id="id-093ee22b-1ae4-4c97-ac13-5055f3d33b2a"
         transform="translate(-149.79,-127.281)">
        <g
           transform="translate(153.168,134.765)"
           id="g1730">
          <path
             d="M 4.421875,-4 C 3.875,-3.890625 3.8125,-3.40625 3.8125,-3.3125 c 0,0.21875 0.171875,0.46875 0.5,0.46875 0.34375,0 0.71875,-0.28125 0.71875,-0.796875 C 5.03125,-4.09375 4.671875,-4.5 4.0625,-4.5 3.5,-4.5 3.03125,-4.234375 2.734375,-3.90625 2.5,-4.359375 1.921875,-4.5 1.5625,-4.5 c -0.359375,0 -0.640625,0.203125 -0.859375,0.5625 -0.25,0.390625 -0.390625,0.921875 -0.390625,0.984375 0,0.140625 0.15625,0.140625 0.25,0.140625 0.109375,0 0.140625,0 0.1875,-0.046875 C 0.78125,-2.875 0.78125,-2.90625 0.84375,-3.15625 c 0.1875,-0.75 0.40625,-0.984375 0.671875,-0.984375 0.15625,0 0.234375,0.09375 0.234375,0.359375 0,0.171875 -0.03125,0.28125 -0.140625,0.75 -0.046875,0.171875 -0.21875,0.828125 -0.28125,1.078125 -0.046875,0.1875 -0.15625,0.640625 -0.203125,0.8125 -0.0625,0.265625 -0.171875,0.71875 -0.171875,0.78125 0,0.203125 0.15625,0.4375 0.46875,0.4375 0.1875,0 0.546875,-0.125 0.65625,-0.53125 0,-0.03125 0.6875,-2.734375 0.6875,-2.796875 C 2.8125,-3.40625 2.8125,-3.421875 2.9375,-3.5625 c 0.234375,-0.296875 0.59375,-0.578125 1.09375,-0.578125 0.25,0 0.359375,0.109375 0.390625,0.140625 z m 0,0"
             id="id-9ca2fb77-630e-4ac6-829e-f43cf6aad6ca" />
        </g>
      </g>
      <g
         fill="#000000"
         fill-opacity="1"
         id="id-656c0e77-282b-49ab-91d2-30c67f5ba089"
         transform="translate(-149.79,-127.281)">
        <g
           transform="translate(158.116,134.765)"
           id="g1734">
          <path
             d="M 2.140625,-0.203125 C 2.109375,0.421875 1.796875,1.09375 1.25,1.5625 1.109375,1.671875 1.109375,1.6875 1.109375,1.75 c 0,0.0625 0.109375,0.1875 0.1875,0.1875 C 1.4375,1.9375 2.5,1.0625 2.5,-0.3125 2.5,-1 2.140625,-1.5625 1.578125,-1.5625 1.109375,-1.5625 0.8125,-1.203125 0.8125,-0.78125 0.8125,-0.375 1.09375,0 1.578125,0 c 0.25,0 0.4375,-0.09375 0.5625,-0.203125 z m 0,0"
             id="id-766956c7-5f93-4493-8702-5f1ca52e289e" />
        </g>
      </g>
      <g
         fill="#000000"
         fill-opacity="1"
         id="id-c0f554a3-beda-450b-b613-45454775aa7a"
         transform="translate(-149.79,-127.281)">
        <g
           transform="translate(163.211,134.765)"
           id="g1738">
          <path
             d="M 2.796875,-6.5625 C 2.84375,-6.703125 2.84375,-6.734375 2.84375,-6.734375 c 0,-0.140625 -0.109375,-0.1875 -0.21875,-0.1875 -0.046875,0 -0.046875,0 -0.078125,0.015625 l -1.28125,0.0625 c -0.140625,0 -0.3125,0.015625 -0.3125,0.296875 0,0.171875 0.1875,0.171875 0.25,0.171875 0.109375,0 0.296875,0 0.421875,0.03125 -0.078125,0.328125 -0.171875,0.765625 -0.28125,1.140625 l -0.6875,2.75 c -0.140625,0.5625 -0.140625,0.671875 -0.140625,0.90625 0,1.28125 0.953125,1.625 1.703125,1.625 1.796875,0 2.828125,-1.625 2.828125,-2.9375 C 5.046875,-4.09375 4.125,-4.5 3.296875,-4.5 c -0.46875,0 -0.875,0.1875 -1.078125,0.3125 z m -0.5625,6.28125 c -0.390625,0 -0.71875,-0.203125 -0.71875,-0.828125 0,-0.3125 0.09375,-0.6875 0.171875,-1 0.09375,-0.375 0.265625,-1.0625 0.34375,-1.359375 0.046875,-0.171875 0.609375,-0.671875 1.21875,-0.671875 0.625,0 0.671875,0.53125 0.671875,0.75 0,0.515625 -0.34375,1.75 -0.5,2.140625 -0.34375,0.796875 -0.90625,0.96875 -1.1875,0.96875 z m 0,0"
             id="id-cc6f8a09-a4c7-46e1-968a-470907a89e8b" />
        </g>
        <g
           transform="translate(168.4,134.765)"
           id="g1741">
          <path
             d="M 2.140625,-0.203125 C 2.109375,0.421875 1.796875,1.09375 1.25,1.5625 1.109375,1.671875 1.109375,1.6875 1.109375,1.75 c 0,0.0625 0.109375,0.1875 0.1875,0.1875 C 1.4375,1.9375 2.5,1.0625 2.5,-0.3125 2.5,-1 2.140625,-1.5625 1.578125,-1.5625 1.109375,-1.5625 0.8125,-1.203125 0.8125,-0.78125 0.8125,-0.375 1.09375,0 1.578125,0 c 0.25,0 0.4375,-0.09375 0.5625,-0.203125 z m 0,0"
             id="id-2858279b-23cf-437a-a2bc-66584c75cab6" />
        </g>
      </g>
      <g
         fill="#000000"
         fill-opacity="1"
         id="id-dc23ee27-48b5-43cc-9c1c-4b0742340557"
         transform="translate(-149.79,-127.281)">
        <g
           transform="translate(173.49,134.765)"
           id="g1745">
          <path
             d="m 7.5,-2.1875 c 0.140625,0 0.4375,0 0.4375,-0.3125 0,-0.296875 -0.28125,-0.296875 -0.4375,-0.296875 H 1.40625 c -0.15625,0 -0.453125,0 -0.453125,0.296875 0,0.3125 0.296875,0.3125 0.453125,0.3125 z m 0,0"
             id="id-686775af-2a40-4c62-a957-d37237193b2c" />
        </g>
      </g>
      <g
         fill="#000000"
         fill-opacity="1"
         id="id-92e89573-6401-4c74-afe3-a6ac95e6fb7a"
         transform="translate(-149.79,-127.281)">
        <g
           transform="translate(182.401,134.765)"
           id="g1749">
          <path
             d="m 2.40625,-3.40625 c 0.140625,0 0.265625,0 0.40625,0 0.390625,-0.015625 0.890625,-0.046875 1.28125,-0.0625 -0.28125,0.265625 -0.4375,0.421875 -1.4375,1.1875 -2.015625,1.53125 -2.234375,2.1875 -2.234375,2.21875 0,0.140625 0.140625,0.140625 0.21875,0.140625 0.171875,0 0.171875,-0.015625 0.25,-0.109375 0.359375,-0.5 0.71875,-0.5625 0.890625,-0.5625 0.265625,0 0.484375,0.171875 0.640625,0.28125 0.3125,0.21875 0.5625,0.390625 0.9375,0.390625 1.109375,0 1.84375,-1.21875 1.84375,-1.59375 0,-0.140625 -0.171875,-0.140625 -0.234375,-0.140625 -0.078125,0 -0.1875,0 -0.21875,0.09375 -0.078125,0.1875 -0.1875,0.4375 -0.859375,0.515625 -0.046875,0.015625 -2,0.09375 -2.21875,0.09375 0.28125,-0.265625 0.4375,-0.421875 1.453125,-1.1875 2.015625,-1.53125 2.234375,-2.1875 2.234375,-2.21875 C 5.359375,-4.5 5.21875,-4.5 5.140625,-4.5 c -0.15625,0 -0.171875,0 -0.234375,0.09375 -0.234375,0.34375 -0.4375,0.578125 -0.671875,0.578125 -0.25,0 -0.46875,-0.15625 -0.703125,-0.3125 C 3.296875,-4.328125 3.046875,-4.5 2.671875,-4.5 c -0.875,0 -1.453125,0.875 -1.453125,1.1875 0,0.140625 0.171875,0.140625 0.25,0.140625 0.09375,0 0.203125,0 0.21875,-0.125 C 1.828125,-3.375 1.90625,-3.375 2.203125,-3.40625 Z m 0,0"
             id="id-24ed8fc0-7611-471b-9b92-a909d8e7c8c6" />
        </g>
      </g>
      <g
         fill="#000000"
         fill-opacity="1"
         id="id-7fb8f0e6-e676-4f61-8a27-0594a2a8607c"
         transform="translate(-149.79,-127.281)">
        <g
           transform="translate(187.931,136.259)"
           id="g1753">
          <path
             d="m 1.03125,-0.90625 c -0.046875,0.203125 -0.125,0.5625 -0.125,0.609375 0,0.25 0.1875,0.359375 0.359375,0.359375 C 1.65625,0.0625 1.75,-0.296875 1.8125,-0.5 1.90625,-0.90625 1.90625,-0.921875 2,-1.3125 2.109375,-1.71875 2.109375,-1.734375 2.125,-1.796875 2.171875,-2 2.46875,-2.34375 2.65625,-2.515625 c 0.125,-0.109375 0.421875,-0.3125 0.796875,-0.3125 0.328125,0 0.390625,0.1875 0.390625,0.40625 0,0.390625 -0.3125,1.171875 -0.421875,1.453125 C 3.328125,-0.75 3.3125,-0.6875 3.3125,-0.578125 c 0,0.40625 0.453125,0.640625 0.890625,0.640625 0.796875,0 1.21875,-0.890625 1.21875,-1.09375 0,-0.125 -0.125,-0.125 -0.21875,-0.125 -0.171875,0 -0.1875,0.015625 -0.234375,0.15625 -0.125,0.390625 -0.421875,0.734375 -0.71875,0.734375 -0.046875,0 -0.125,0 -0.125,-0.171875 0,-0.125 0.046875,-0.203125 0.171875,-0.53125 0.0625,-0.140625 0.390625,-0.953125 0.390625,-1.328125 0,-0.859375 -0.96875,-0.859375 -1.171875,-0.859375 -0.171875,0 -0.703125,0 -1.265625,0.5625 -0.15625,-0.5625 -0.90625,-0.5625 -0.96875,-0.5625 -0.734375,0 -0.96875,1.03125 -0.96875,1.09375 0,0.125 0.109375,0.125 0.21875,0.125 0.171875,0 0.1875,0 0.21875,-0.15625 0.09375,-0.296875 0.21875,-0.734375 0.484375,-0.734375 0.171875,0 0.1875,0.171875 0.1875,0.28125 0,0.09375 -0.015625,0.171875 -0.0625,0.390625 C 1.28125,-1.890625 1.28125,-1.875 1.21875,-1.609375 Z m 0,0"
             id="id-74cf741e-de67-40ab-acdc-c5e8db74eafd" />
        </g>
        <g
           transform="translate(193.67,136.259)"
           id="g1756">
          <path
             d="m 1.71875,-1.4375 c 0.484375,0 0.984375,-0.046875 1.3125,-0.140625 C 3.546875,-1.71875 3.859375,-2 3.859375,-2.4375 c 0,-0.4375 -0.4375,-0.71875 -1.09375,-0.71875 -1.453125,0 -2.34375,0.9375 -2.34375,1.9375 0,1.28125 1.390625,1.28125 1.734375,1.28125 0.390625,0 0.734375,-0.015625 1.09375,-0.125 0.40625,-0.09375 0.765625,-0.375 0.765625,-0.5 0,-0.078125 -0.15625,-0.234375 -0.234375,-0.234375 -0.046875,0 -0.078125,0.015625 -0.125,0.0625 -0.171875,0.171875 -0.5,0.46875 -1.53125,0.46875 -0.21875,0 -0.828125,0 -0.828125,-0.671875 0,-0.140625 0.046875,-0.34375 0.078125,-0.5 z M 1.453125,-1.765625 C 1.53125,-2 1.765625,-2.828125 2.75,-2.828125 c 0.34375,0 0.59375,0.15625 0.59375,0.390625 0,0.671875 -1.15625,0.671875 -1.890625,0.671875 z m 0,0"
             id="id-5517d139-f91e-4d87-a967-36b9f7deb476" />
        </g>
        <g
           transform="translate(198.026,136.259)"
           id="g1759">
          <path
             d="M 2.78125,-0.84375 C 2.75,-0.71875 2.75,-0.703125 2.640625,-0.609375 c -0.15625,0.15625 -0.46875,0.34375 -0.828125,0.34375 -0.3125,0 -0.546875,-0.171875 -0.546875,-0.546875 0,-0.265625 0.1875,-1.09375 0.375,-1.453125 0.203125,-0.375 0.546875,-0.5625 0.875,-0.5625 0.515625,0 0.65625,0.375 0.65625,0.421875 0,0.015625 -0.015625,0.0625 -0.015625,0.09375 z M 3.359375,-2.859375 C 3.234375,-2.96875 2.96875,-3.15625 2.515625,-3.15625 c -1.34375,0 -2.109375,1.09375 -2.109375,2.015625 0,0.84375 0.65625,1.203125 1.375,1.203125 0.546875,0 0.921875,-0.25 1.0625,-0.375 0.15625,0.21875 0.515625,0.375 0.890625,0.375 0.75,0 0.984375,-1.046875 0.984375,-1.09375 0,-0.125 -0.125,-0.125 -0.21875,-0.125 -0.171875,0 -0.1875,0 -0.234375,0.15625 C 4.1875,-0.6875 4.0625,-0.265625 3.78125,-0.265625 c -0.171875,0 -0.1875,-0.171875 -0.1875,-0.28125 0,-0.09375 0.078125,-0.421875 0.140625,-0.625 L 4,-2.265625 c 0.046875,-0.140625 0.09375,-0.375 0.09375,-0.421875 0,-0.21875 -0.15625,-0.34375 -0.359375,-0.34375 -0.21875,0 -0.375,0.15625 -0.375,0.171875 z m 0,0"
             id="id-98d33110-2437-4d32-af4f-c1ec1adc6d2d" />
        </g>
        <g
           transform="translate(203.063,136.259)"
           id="g1762">
          <path
             d="m 1.03125,-0.90625 c -0.046875,0.203125 -0.125,0.5625 -0.125,0.609375 0,0.25 0.1875,0.359375 0.359375,0.359375 0.15625,0 0.421875,-0.109375 0.5,-0.40625 0.03125,-0.09375 0.25,-1.015625 0.296875,-1.203125 0.015625,-0.0625 0.0625,-0.234375 0.078125,-0.296875 0.015625,-0.09375 0.046875,-0.203125 0.0625,-0.296875 0.03125,-0.0625 0.234375,-0.34375 0.390625,-0.46875 0.09375,-0.0625 0.296875,-0.21875 0.609375,-0.21875 0.109375,0 0.21875,0.03125 0.296875,0.109375 -0.328125,0.09375 -0.40625,0.390625 -0.40625,0.53125 0,0.21875 0.171875,0.359375 0.390625,0.359375 0.25,0 0.5625,-0.1875 0.5625,-0.625 0,-0.390625 -0.328125,-0.703125 -0.828125,-0.703125 -0.34375,0 -0.6875,0.140625 -1,0.453125 C 2.046875,-3.0625 1.5625,-3.15625 1.28125,-3.15625 c -0.734375,0 -0.96875,1.046875 -0.96875,1.09375 0,0.125 0.109375,0.125 0.21875,0.125 0.171875,0 0.1875,0 0.21875,-0.15625 0.09375,-0.296875 0.21875,-0.734375 0.484375,-0.734375 0.171875,0 0.1875,0.1875 0.1875,0.28125 0,0.09375 -0.015625,0.171875 -0.0625,0.390625 C 1.28125,-1.890625 1.28125,-1.875 1.21875,-1.609375 Z m 0,0"
             id="id-d7964d4e-b0fc-4e3d-9eff-d9a93fc26467" />
        </g>
      </g>
      <g
         fill="#000000"
         fill-opacity="1"
         id="id-8bd486a7-a5d9-4aa6-a670-939b86a65357"
         transform="translate(-149.79,-127.281)">
        <g
           transform="translate(208.033,134.765)"
           id="g1766">
          <path
             d="M 3.375,-2.5 C 3.375,-3.734375 3.046875,-4.828125 2.578125,-5.65625 1.90625,-6.8125 1,-7.484375 0.8125,-7.484375 c -0.078125,0 -0.171875,0.03125 -0.171875,0.140625 0,0.0625 0,0.078125 0.171875,0.234375 1.25,1.28125 1.59375,3.046875 1.59375,4.609375 0,1.96875 -0.515625,3.53125 -1.609375,4.640625 -0.15625,0.140625 -0.15625,0.15625 -0.15625,0.203125 0,0.109375 0.09375,0.140625 0.171875,0.140625 0.171875,0 0.59375,-0.375 0.765625,-0.546875 C 3.140625,0.40625 3.375,-1.4375 3.375,-2.5 Z m 0,0"
             id="id-69aa0c98-50f0-4dff-9b73-6d898c04a87e" />
        </g>
      </g>
    </g>
  </g>
</svg>
